<svg xmlns="http://www.w3.org/2000/svg" xmlns:v="https://svgstorm.com"
viewBox = "0 0 290 116"
width="290"
height="116">
<g fill="None" fill-opacity="0.0" stroke="#000000" stroke-opacity="0.00" stroke-width="0.3"><path d="
M 0.00 116.00 
L 252.00 116.00
C 252.00 115.50 252.00 115.00 252.00 115.00
C 250.62 111.29 255.45 112.81 256.00 110.00
C 256.00 106.00 256.00 102.00 256.00 98.00
C 256.00 97.50 256.00 97.00 256.00 97.00
C 256.00 94.00 256.00 91.00 256.00 88.00
C 256.00 87.00 256.00 86.00 256.00 85.00
C 256.00 80.67 256.00 76.33 256.00 72.00
C 254.54 71.45 253.82 69.60 252.00 70.00
C 251.05 66.13 255.39 65.60 258.00 65.00
C 258.26 63.61 260.05 64.22 261.00 64.00
C 261.50 64.00 262.56 63.84 263.00 64.00
C 264.67 64.24 263.17 66.85 265.00 67.00
C 267.09 65.96 268.23 63.22 271.00 64.00
C 273.53 61.89 278.75 63.05 281.00 65.00
C 285.18 67.93 287.45 72.45 288.00 77.00
C 289.43 78.03 289.69 82.04 288.00 83.00
C 287.25 87.76 283.88 94.03 279.00 96.00
C 278.76 97.28 276.56 98.97 276.00 97.00
C 275.05 98.69 273.47 96.27 273.00 98.00
C 274.65 99.37 267.52 99.79 267.00 98.00
C 266.00 98.11 264.27 97.53 264.00 99.00
C 265.47 100.33 265.71 104.74 264.00 106.00
C 264.07 106.35 264.72 106.77 265.00 107.00
C 266.60 107.53 265.72 109.75 266.00 111.00
C 266.46 111.14 267.00 111.00 267.00 111.00
C 267.72 110.72 270.96 111.14 269.00 112.00
C 270.12 113.06 269.48 113.84 269.00 115.00
C 268.78 115.38 269.00 116.00 269.00 116.00
L 290.00 116.00
L 290.00 0.00
L 0.00 0.00
L 0.00 116.00
M 66.00 7.00 
C 66.88 11.11 63.27 13.60 62.00 17.00
C 60.74 18.93 59.00 20.91 57.00 22.00
C 54.66 24.58 51.21 23.99 48.00 24.00
C 47.74 25.39 45.95 24.78 45.00 25.00
C 43.83 31.89 46.19 49.69 37.00 37.00
C 36.13 36.05 34.32 36.46 34.00 35.00
C 33.50 35.01 33.00 35.00 33.00 35.00
C 30.67 35.00 28.33 35.00 26.00 35.00
C 22.21 35.32 18.15 37.73 18.00 42.00
C 18.00 44.00 18.00 46.00 18.00 48.00
C 18.25 50.88 20.46 53.63 23.00 55.00
C 24.99 55.28 26.78 56.48 29.00 56.00
C 29.50 55.98 30.00 56.00 30.00 56.00
C 32.15 54.12 37.26 54.57 39.00 57.00
C 41.79 68.00 25.49 59.24 20.77 63.77 C 13.70 67.38 10.76 75.41 11.00 83.00
C 12.11 83.84 13.04 85.46 13.00 87.00
C 13.03 87.50 13.00 88.00 13.00 88.00
C 15.29 90.11 18.22 91.64 20.00 94.00
C 23.27 93.30 25.77 95.43 29.00 95.00
C 29.26 93.61 31.05 94.22 32.00 94.00
C 32.49 94.06 33.00 94.00 33.00 94.00
C 33.55 92.99 34.98 92.56 36.00 92.00
C 41.31 91.79 40.69 81.25 47.00 85.00
C 44.23 102.05 19.06 104.41 8.00 95.00
C 6.80 94.33 5.42 93.36 5.00 92.00
C 4.77 89.08 1.25 87.32 2.00 84.00
C 0.50 82.36 0.28 77.57 2.00 76.00
C 2.65 68.66 8.98 61.92 16.00 60.00
C 15.89 59.00 16.47 57.27 15.00 57.00
C 13.80 56.33 12.42 55.36 12.00 54.00
C 6.87 47.51 8.36 36.47 16.00 33.00
C 16.55 31.99 17.98 31.56 19.00 31.00
C 24.09 27.61 33.91 33.05 37.00 28.00
C 36.72 26.72 37.76 24.50 36.00 24.00
C 33.32 24.54 31.22 23.08 29.00 22.00
C 27.80 21.33 26.42 20.36 26.00 19.00
C 22.96 16.00 18.11 10.19 21.00 6.00
C 23.28 4.46 28.79 4.28 31.00 6.00
C 35.62 6.43 40.35 10.21 41.00 15.00
C 41.14 15.23 42.62 15.22 43.00 15.00
C 42.47 13.72 43.97 13.14 44.00 12.00
C 45.89 9.38 48.35 6.76 51.00 5.00
C 54.12 4.43 56.76 2.32 60.00 2.00
C 60.53 0.40 62.75 1.28 64.00 1.00
C 64.50 1.02 65.66 0.77 66.00 1.00
C 67.43 2.03 67.69 6.04 66.00 7.00
M 191.00 50.00 
C 191.03 50.50 191.00 51.50 191.00 52.00
C 191.00 57.00 191.00 62.00 191.00 67.00
C 192.25 66.70 192.71 65.17 194.00 65.00
C 194.94 64.43 195.82 63.85 197.00 64.00
C 197.83 62.25 200.44 63.34 202.00 63.00
C 203.56 62.59 204.69 63.46 206.00 64.00
C 207.47 64.83 209.25 66.07 209.00 68.00
C 209.26 68.24 209.77 68.71 210.00 69.00
C 211.39 69.26 210.78 71.05 211.00 72.00
C 211.86 77.77 210.77 83.54 211.00 90.00
C 213.53 89.37 212.90 92.53 213.00 94.00
C 213.29 94.22 213.73 94.81 214.00 95.00
C 214.83 95.41 215.87 95.97 216.00 97.00
C 211.22 98.41 205.60 97.80 200.00 98.00
C 197.62 97.57 197.69 94.41 200.00 94.00
C 206.12 93.82 203.05 86.23 203.00 82.00
C 203.00 81.00 203.00 80.00 203.00 79.00
C 204.84 75.83 202.34 72.83 201.00 70.00
C 196.59 69.66 190.56 71.04 190.00 77.00
C 192.22 80.75 190.41 86.49 191.00 91.00
C 191.13 93.86 194.51 95.18 195.00 98.00
C 189.26 97.66 183.55 97.14 178.00 98.00
C 176.57 93.99 180.17 94.55 182.00 93.00
C 182.64 88.83 180.71 83.34 183.00 80.00
C 182.72 78.01 181.52 76.22 182.00 74.00
C 182.00 68.33 182.00 62.67 182.00 57.00
C 182.53 54.47 179.25 55.25 178.00 54.00
C 177.68 47.52 184.60 49.38 189.00 47.00
C 190.29 47.44 191.21 48.58 191.00 50.00
M 81.00 51.00 
C 81.00 59.67 81.00 68.33 81.00 77.00
C 81.00 78.67 81.00 80.33 81.00 82.00
C 80.52 84.64 80.43 89.58 82.00 92.00
C 82.94 92.57 83.82 93.15 85.00 93.00
C 85.70 95.70 84.20 98.83 81.00 98.00
C 78.51 97.71 76.61 99.64 74.00 99.00
C 73.87 94.76 71.83 95.66 69.00 97.00
C 67.95 98.43 65.90 99.23 64.00 99.00
C 61.43 99.47 59.35 98.46 57.00 98.00
C 55.07 96.74 53.09 95.00 52.00 93.00
C 48.16 88.19 48.15 80.65 50.00 75.00
C 49.73 73.72 50.77 72.28 52.00 72.00
C 54.22 66.48 60.89 62.52 67.00 63.00
C 68.00 63.11 69.73 62.53 70.00 64.00
C 71.00 64.00 72.00 64.00 73.00 64.00
C 73.18 60.65 73.69 55.11 69.00 55.00
C 66.73 53.98 68.81 50.34 71.00 51.00
C 71.45 50.85 72.00 51.00 72.00 51.00
C 72.73 49.65 74.83 50.04 76.00 49.00
C 76.48 48.91 77.58 49.19 78.00 49.00
C 78.84 46.81 81.61 49.39 81.00 51.00
M 105.00 64.00 
C 105.50 63.97 106.55 63.85 107.00 64.00
C 108.93 65.26 110.91 67.00 112.00 69.00
C 113.70 72.41 113.30 75.10 113.00 79.00
C 111.67 79.00 110.33 79.00 109.00 79.00
C 105.67 79.00 102.33 79.00 99.00 79.00
C 97.17 79.23 95.53 78.93 94.00 78.00
C 91.28 82.76 94.83 89.19 99.00 91.00
C 100.28 91.28 102.50 90.24 103.00 92.00
C 106.26 90.72 108.86 88.47 112.00 87.00
C 114.60 87.55 114.54 91.48 112.00 92.00
C 110.28 92.84 110.01 95.30 108.00 96.00
C 107.56 97.29 106.42 98.21 105.00 98.00
C 103.03 99.59 100.34 98.80 98.00 99.00
C 97.00 98.89 95.27 99.47 95.00 98.00
C 94.51 98.06 94.00 98.00 94.00 98.00
C 92.23 98.21 90.63 96.46 90.00 95.00
C 87.69 93.86 86.23 91.47 86.00 89.00
C 82.97 87.69 83.39 81.94 85.00 80.00
C 84.10 71.52 91.66 63.21 100.00 63.00
C 101.57 63.39 104.22 62.06 105.00 64.00
M 127.00 65.00 
C 127.00 66.00 127.00 67.00 127.00 68.00
C 133.44 60.79 147.57 61.59 148.00 73.00
C 148.00 74.00 148.00 75.00 148.00 76.00
C 148.00 78.00 148.00 80.00 148.00 82.00
C 148.00 84.33 148.00 86.67 148.00 89.00
C 145.98 94.40 153.72 92.95 152.00 98.00
C 146.33 98.00 140.67 98.00 135.00 98.00
C 138.68 93.01 141.53 86.51 140.00 79.00 C 141.54 71.68 131.75 66.35 128.00 74.00
C 128.58 80.60 126.79 87.83 129.00 94.00
C 131.29 93.61 132.41 96.07 132.00 98.00
C 126.33 98.00 120.67 98.00 115.00 98.00
C 113.57 93.99 117.17 94.55 119.00 93.00
C 117.70 92.18 119.76 89.66 119.00 88.00
C 119.00 86.33 119.00 84.67 119.00 83.00
C 118.30 78.70 121.07 72.21 116.00 70.00
C 114.07 69.29 115.28 66.21 117.00 66.00
C 117.35 65.77 118.00 66.00 118.00 66.00
C 118.55 64.99 119.98 64.56 121.00 64.00
C 122.00 64.00 123.00 64.00 124.00 64.00
C 124.48 62.12 126.92 63.75 127.00 65.00
M 171.00 64.00 
C 171.50 64.00 172.00 64.00 172.00 64.00
C 173.28 63.73 174.72 64.77 175.00 66.00
C 176.28 68.23 174.24 71.21 175.00 74.00
C 172.77 72.91 171.40 74.55 171.00 72.00
C 169.53 71.17 167.75 69.93 168.00 68.00
C 167.71 67.75 167.00 68.00 167.00 68.00
C 165.67 68.00 164.33 68.00 163.00 68.00
C 161.57 69.05 160.77 71.10 161.00 73.00
C 162.33 73.99 164.57 74.05 165.00 76.00
C 166.28 75.73 167.72 76.77 168.00 78.00
C 170.76 79.06 174.84 80.33 175.00 84.00
C 176.75 84.83 175.66 87.44 176.00 89.00
C 177.06 91.05 176.43 93.18 174.00 94.00
C 174.52 94.97 172.58 97.96 172.00 96.00
C 171.17 97.93 169.93 96.89 169.00 98.00
C 168.74 99.39 166.95 98.78 166.00 99.00
C 164.72 97.70 163.35 98.22 162.00 99.00
C 160.72 98.72 158.50 99.76 158.00 98.00
C 155.84 98.53 153.76 96.89 153.00 95.00
C 153.56 92.48 151.81 88.70 154.00 87.00
C 154.84 84.81 157.61 87.39 157.00 89.00
C 158.01 89.55 158.44 90.98 159.00 92.00
C 159.22 92.26 159.83 92.67 160.00 93.00
C 161.67 94.42 163.96 93.89 166.00 94.00
C 168.14 93.41 168.46 90.96 170.00 90.00
C 169.04 88.43 167.68 86.75 166.00 86.00
C 164.59 85.85 162.66 85.35 162.00 84.00
C 160.66 83.27 159.36 82.66 158.00 82.00
C 155.45 81.00 157.77 75.75 154.00 78.00
C 155.35 74.95 152.35 70.35 156.00 68.00
C 157.19 66.29 158.65 63.88 161.00 64.00
C 161.53 62.40 163.75 63.28 165.00 63.00
C 166.88 63.47 169.93 61.94 171.00 64.00
M 239.00 64.00 
C 240.57 63.70 242.61 64.25 243.00 66.00
C 244.85 66.97 247.24 67.79 248.00 70.00
C 250.19 73.16 250.79 75.48 251.00 79.00
C 250.53 80.88 252.06 83.93 250.00 85.00
C 249.33 91.18 244.20 97.30 238.00 98.00
C 236.04 99.52 230.89 99.72 229.00 98.00
C 227.50 97.15 225.79 98.16 225.00 97.00
C 224.13 96.05 222.32 96.46 222.00 95.00
C 217.05 90.91 215.16 83.75 216.00 76.00
C 216.95 75.13 216.54 73.32 218.00 73.00
C 219.59 69.09 223.65 64.11 229.00 64.00
C 229.26 62.61 231.05 63.22 232.00 63.00
C 234.19 63.52 237.62 61.86 239.00 64.00 Z"/>
</g>
<g fill="None" fill-opacity="0.0" stroke="#F1F7F8" stroke-opacity="0.08" stroke-width="0.3"><path d="
M 60.00 2.00 
C 61.28 1.72 63.50 2.76 64.00 1.00
C 62.75 1.28 60.53 0.40 60.00 2.00 Z"/>
</g>
<g fill="None" fill-opacity="0.0" stroke="#6FB183" stroke-opacity="0.69" stroke-width="0.3"><path d="
M 60.00 2.00 
C 56.76 2.32 54.12 4.43 51.00 5.00
C 49.11 7.62 46.65 10.24 44.00 12.00
C 43.97 13.14 42.47 13.72 43.00 15.00
C 42.43 15.94 41.85 16.82 42.00 18.00
C 40.61 17.74 41.22 15.95 41.00 15.00
C 40.35 10.21 35.62 6.43 31.00 6.00
C 27.67 6.00 24.33 6.00 21.00 6.00
C 18.11 10.19 22.96 16.00 26.00 19.00
C 27.20 19.67 28.58 20.64 29.00 22.00
C 31.22 23.08 33.32 24.54 36.00 24.00
C 37.96 20.95 39.15 27.54 37.00 28.00
C 33.91 33.05 24.09 27.61 19.00 31.00
C 18.56 32.29 17.42 33.21 16.00 33.00
C 8.36 36.47 6.87 47.51 12.00 54.00
C 13.20 54.67 14.58 55.64 15.00 57.00
C 16.47 57.27 15.89 59.00 16.00 60.00
C 8.98 61.92 2.65 68.66 2.00 76.00
C 2.00 78.67 2.00 81.33 2.00 84.00
C 1.25 87.32 4.77 89.08 5.00 92.00
C 6.20 92.67 7.58 93.64 8.00 95.00
C 19.06 104.41 44.23 102.05 47.00 85.00
C 40.69 81.25 41.31 91.79 36.00 92.00
C 35.56 93.29 34.42 94.21 33.00 94.00
C 33.00 94.00 32.49 94.06 32.00 94.00
C 31.74 95.39 29.95 94.78 29.00 95.00
C 25.77 95.43 23.27 93.30 20.00 94.00
C 17.18 92.86 14.54 90.65 13.00 88.00
C 13.00 88.00 13.03 87.50 13.00 87.00
C 11.89 86.16 10.96 84.54 11.00 83.00
C 10.76 75.41 13.70 67.38 20.77 63.77 C 25.49 59.24 41.79 68.00 39.00 57.00
C 36.21 55.99 33.11 55.82 30.00 56.00
C 30.00 56.00 29.50 55.98 29.00 56.00
C 27.72 58.05 24.00 56.65 23.00 55.00
C 20.46 53.63 18.25 50.88 18.00 48.00
C 16.57 46.97 16.31 42.96 18.00 42.00
C 18.15 37.73 22.21 35.32 26.00 35.00
C 27.33 33.53 31.74 33.29 33.00 35.00
C 33.00 35.00 33.50 35.01 34.00 35.00
C 35.28 34.73 36.72 35.77 37.00 37.00
C 46.19 49.69 43.83 31.89 45.00 25.00
C 45.26 23.61 47.05 24.22 48.00 24.00
C 51.21 23.99 54.66 24.58 57.00 22.00
C 58.26 20.07 60.00 18.09 62.00 17.00
C 63.27 13.60 66.88 11.11 66.00 7.00
C 66.00 5.00 66.00 3.00 66.00 1.00
C 65.66 0.77 64.50 1.02 64.00 1.00
C 63.50 2.76 61.28 1.72 60.00 2.00
M 57.00 9.00 
C 54.59 14.21 51.50 9.74 57.00 9.00
M 34.00 17.00 
C 34.83 17.41 35.87 17.97 36.00 19.00
C 34.23 19.21 32.63 17.46 32.00 16.00
C 30.64 14.54 27.78 14.42 28.00 12.00
C 30.35 13.02 32.85 14.58 34.00 17.00
M 53.00 12.00 
C 51.16 16.82 48.29 12.39 53.00 12.00 Z"/>
</g>
<g fill="None" fill-opacity="0.0" stroke="#F1F7F8" stroke-opacity="0.08" stroke-width="0.3"><path d="
M 66.00 7.00 
C 67.69 6.04 67.43 2.03 66.00 1.00
C 66.00 3.00 66.00 5.00 66.00 7.00 Z"/>
</g>
<g fill="None" fill-opacity="0.0" stroke="#F1F7F8" stroke-opacity="0.02" stroke-width="0.3"><path d="
M 21.00 6.00 
C 24.33 6.00 27.67 6.00 31.00 6.00
C 28.79 4.28 23.28 4.46 21.00 6.00 Z"/>
</g>
<g fill="None" fill-opacity="0.0" stroke="#F1F7F8" stroke-opacity="0.02" stroke-width="0.3"><path d="
M 44.00 12.00 
C 46.65 10.24 49.11 7.62 51.00 5.00
C 48.35 6.76 45.89 9.38 44.00 12.00 Z"/>
</g>
<g fill="None" fill-opacity="0.0" stroke="#F1F7F8" stroke-opacity="0.03" stroke-width="0.3"><path d="
M 57.00 9.00 
C 51.50 9.74 54.59 14.21 57.00 9.00 Z"/>
</g>
<g fill="None" fill-opacity="0.0" stroke="#000000" stroke-opacity="0.00" stroke-width="0.3"><path d="
M 32.00 16.00 
C 32.80 16.13 33.11 17.09 34.00 17.00
C 32.85 14.58 30.35 13.02 28.00 12.00
C 27.78 14.42 30.64 14.54 32.00 16.00 Z"/>
</g>
<g fill="None" fill-opacity="0.0" stroke="#14362A" stroke-opacity="0.01" stroke-width="0.3"><path d="
M 53.00 12.00 
C 48.29 12.39 51.16 16.82 53.00 12.00 Z"/>
</g>
<g fill="None" fill-opacity="0.0" stroke="#F1F7F8" stroke-opacity="0.01" stroke-width="0.3"><path d="
M 43.00 15.00 
C 42.62 15.22 41.14 15.23 41.00 15.00
C 41.22 15.95 40.61 17.74 42.00 18.00
C 41.85 16.82 42.43 15.94 43.00 15.00 Z"/>
</g>
<g fill="None" fill-opacity="0.0" stroke="#F1F7F8" stroke-opacity="0.02" stroke-width="0.3"><path d="
M 34.00 17.00 
C 33.11 17.09 32.80 16.13 32.00 16.00
C 32.63 17.46 34.23 19.21 36.00 19.00
C 35.87 17.97 34.83 17.41 34.00 17.00 Z"/>
</g>
<g fill="None" fill-opacity="0.0" stroke="#F1F7F8" stroke-opacity="0.02" stroke-width="0.3"><path d="
M 57.00 22.00 
C 59.00 20.91 60.74 18.93 62.00 17.00
C 60.00 18.09 58.26 20.07 57.00 22.00 Z"/>
</g>
<g fill="None" fill-opacity="0.0" stroke="#F1F7F8" stroke-opacity="0.04" stroke-width="0.3"><path d="
M 29.00 22.00 
C 28.58 20.64 27.20 19.67 26.00 19.00
C 26.42 20.36 27.80 21.33 29.00 22.00 Z"/>
</g>
<g fill="None" fill-opacity="0.0" stroke="#F1F7F8" stroke-opacity="0.01" stroke-width="0.3"><path d="
M 36.00 24.00 
C 37.76 24.50 36.72 26.72 37.00 28.00
C 39.15 27.54 37.96 20.95 36.00 24.00 Z"/>
</g>
<g fill="None" fill-opacity="0.0" stroke="#F1F7F8" stroke-opacity="0.02" stroke-width="0.3"><path d="
M 45.00 25.00 
C 45.95 24.78 47.74 25.39 48.00 24.00
C 47.05 24.22 45.26 23.61 45.00 25.00 Z"/>
</g>
<g fill="None" fill-opacity="0.0" stroke="#F1F7F8" stroke-opacity="0.05" stroke-width="0.3"><path d="
M 16.00 33.00 
C 17.42 33.21 18.56 32.29 19.00 31.00
C 17.98 31.56 16.55 31.99 16.00 33.00 Z"/>
</g>
<g fill="None" fill-opacity="0.0" stroke="#F1F7F8" stroke-opacity="0.08" stroke-width="0.3"><path d="
M 26.00 35.00 
C 28.33 35.00 30.67 35.00 33.00 35.00
C 31.74 33.29 27.33 33.53 26.00 35.00 Z"/>
</g>
<g fill="None" fill-opacity="0.0" stroke="#F1F7F8" stroke-opacity="0.02" stroke-width="0.3"><path d="
M 37.00 37.00 
C 36.72 35.77 35.28 34.73 34.00 35.00
C 34.32 36.46 36.13 36.05 37.00 37.00 Z"/>
</g>
<g fill="None" fill-opacity="0.0" stroke="#F1F7F8" stroke-opacity="0.02" stroke-width="0.3"><path d="
M 18.00 48.00 
C 18.00 46.00 18.00 44.00 18.00 42.00
C 16.31 42.96 16.57 46.97 18.00 48.00 Z"/>
</g>
<g fill="None" fill-opacity="0.0" stroke="#14362A" stroke-opacity="0.75" stroke-width="0.3"><path d="
M 182.00 57.00 
C 183.62 61.59 183.70 69.48 182.00 74.00
C 181.52 76.22 182.72 78.01 183.00 80.00
C 182.36 84.17 184.29 89.66 182.00 93.00
C 180.17 94.55 176.57 93.99 178.00 98.00
C 183.55 97.14 189.26 97.66 195.00 98.00
C 194.51 95.18 191.13 93.86 191.00 91.00
C 188.78 87.25 190.59 81.51 190.00 77.00
C 190.56 71.04 196.59 69.66 201.00 70.00
C 202.34 72.83 204.84 75.83 203.00 79.00
C 204.28 79.22 204.42 81.81 203.00 82.00
C 203.05 86.23 206.12 93.82 200.00 94.00
C 199.94 94.01 200.00 95.00 200.00 95.00
C 204.57 96.25 209.40 96.22 214.00 95.00
C 213.73 94.81 213.29 94.22 213.00 94.00
C 211.89 93.16 210.96 91.54 211.00 90.00
C 210.77 83.54 211.86 77.77 211.00 72.00
C 209.61 71.74 210.22 69.95 210.00 69.00
C 209.77 68.71 209.26 68.24 209.00 68.00
C 207.99 66.91 206.78 65.41 206.00 64.00
C 204.69 63.46 203.56 62.59 202.00 63.00
C 201.17 64.75 198.56 63.66 197.00 64.00
C 195.82 63.85 194.94 64.43 194.00 65.00
C 193.17 66.47 191.93 68.25 190.00 68.00
C 190.65 62.84 188.69 56.34 191.00 52.00
C 191.00 51.50 191.03 50.50 191.00 50.00
C 189.99 49.45 189.56 48.02 189.00 47.00
C 184.60 49.38 177.68 47.52 178.00 54.00
C 179.25 55.25 182.53 54.47 182.00 57.00 Z"/>
</g>
<g fill="None" fill-opacity="0.0" stroke="#F1F7F8" stroke-opacity="0.02" stroke-width="0.3"><path d="
M 191.00 50.00 
C 191.21 48.58 190.29 47.44 189.00 47.00
C 189.56 48.02 189.99 49.45 191.00 50.00 Z"/>
</g>
<g fill="None" fill-opacity="0.0" stroke="#F1F7F8" stroke-opacity="0.02" stroke-width="0.3"><path d="
M 78.00 49.00 
C 80.01 48.18 79.47 50.82 81.00 51.00
C 81.61 49.39 78.84 46.81 78.00 49.00 Z"/>
</g>
<g fill="None" fill-opacity="0.0" stroke="#F1F7F8" stroke-opacity="0.06" stroke-width="0.3"><path d="
M 72.00 51.00 
C 73.57 51.30 75.61 50.75 76.00 49.00
C 74.83 50.04 72.73 49.65 72.00 51.00 Z"/>
</g>
<g fill="None" fill-opacity="0.0" stroke="#6FB183" stroke-opacity="0.72" stroke-width="0.3"><path d="
M 72.00 51.00 
C 72.00 51.00 71.45 50.85 71.00 51.00
C 69.80 52.00 68.48 52.95 69.00 55.00
C 73.69 55.11 73.18 60.65 73.00 64.00
C 72.00 64.00 71.00 64.00 70.00 64.00
C 69.00 63.89 67.27 64.47 67.00 63.00
C 60.89 62.52 54.22 66.48 52.00 72.00
C 51.05 72.87 51.46 74.68 50.00 75.00
C 48.15 80.65 48.16 88.19 52.00 93.00
C 53.93 94.26 55.91 96.00 57.00 98.00
C 59.35 98.46 61.43 99.47 64.00 99.00
C 65.11 97.80 67.29 97.34 69.00 97.00
C 71.83 95.66 73.87 94.76 74.00 99.00
C 76.61 99.64 78.51 97.71 81.00 98.00
C 81.26 96.61 83.05 97.22 84.00 97.00
C 84.76 94.81 82.70 93.68 82.00 92.00
C 80.43 89.58 80.52 84.64 81.00 82.00
C 79.61 81.26 79.35 77.68 81.00 77.00
C 81.00 68.33 81.00 59.67 81.00 51.00
C 79.47 50.82 80.01 48.18 78.00 49.00
C 77.58 49.19 76.48 48.91 76.00 49.00
C 75.61 50.75 73.57 51.30 72.00 51.00
M 73.00 74.00 
C 73.00 77.00 73.00 80.00 73.00 83.00
C 73.59 85.27 72.15 86.90 72.00 89.00
C 72.27 90.28 71.23 91.72 70.00 92.00
C 60.48 94.05 56.07 83.97 58.00 76.00 C 58.46 67.69 71.90 64.75 73.00 74.00 Z"/>
</g>
<g fill="None" fill-opacity="0.0" stroke="#F1F7F8" stroke-opacity="0.05" stroke-width="0.3"><path d="
M 69.00 55.00 
C 68.48 52.95 69.80 52.00 71.00 51.00
C 68.81 50.34 66.73 53.98 69.00 55.00 Z"/>
</g>
<g fill="None" fill-opacity="0.0" stroke="#F1F7F8" stroke-opacity="0.03" stroke-width="0.3"><path d="
M 194.00 65.00 
C 192.71 65.17 192.25 66.70 191.00 67.00
C 191.00 62.00 191.00 57.00 191.00 52.00
C 188.69 56.34 190.65 62.84 190.00 68.00
C 191.93 68.25 193.17 66.47 194.00 65.00 Z"/>
</g>
<g fill="None" fill-opacity="0.0" stroke="#F1F7F8" stroke-opacity="0.02" stroke-width="0.3"><path d="
M 15.00 57.00 
C 14.58 55.64 13.20 54.67 12.00 54.00
C 12.42 55.36 13.80 56.33 15.00 57.00 Z"/>
</g>
<g fill="None" fill-opacity="0.0" stroke="#F1F7F8" stroke-opacity="0.04" stroke-width="0.3"><path d="
M 29.00 56.00 
C 26.78 56.48 24.99 55.28 23.00 55.00
C 24.00 56.65 27.72 58.05 29.00 56.00 Z"/>
</g>
<g fill="None" fill-opacity="0.0" stroke="#F1F7F8" stroke-opacity="0.02" stroke-width="0.3"><path d="
M 30.00 56.00 
C 33.11 55.82 36.21 55.99 39.00 57.00
C 37.26 54.57 32.15 54.12 30.00 56.00 Z"/>
</g>
<g fill="None" fill-opacity="0.0" stroke="#6FB183" stroke-opacity="0.12" stroke-width="0.3"><path d="
M 182.00 74.00 
C 183.70 69.48 183.62 61.59 182.00 57.00
C 182.00 62.67 182.00 68.33 182.00 74.00 Z"/>
</g>
<g fill="None" fill-opacity="0.0" stroke="#F1F7F8" stroke-opacity="0.02" stroke-width="0.3"><path d="
M 70.00 64.00 
C 69.73 62.53 68.00 63.11 67.00 63.00
C 67.27 64.47 69.00 63.89 70.00 64.00 Z"/>
</g>
<g fill="None" fill-opacity="0.0" stroke="#6FB183" stroke-opacity="0.69" stroke-width="0.3"><path d="
M 85.00 80.00 
C 84.77 83.17 85.05 86.12 86.00 89.00
C 86.23 91.47 87.69 93.86 90.00 95.00
C 91.28 96.16 93.14 96.61 94.00 98.00
C 94.00 98.00 94.51 98.06 95.00 98.00
C 96.00 98.11 97.73 97.53 98.00 99.00
C 100.34 98.80 103.03 99.59 105.00 98.00
C 105.55 96.99 106.98 96.56 108.00 96.00
C 110.01 95.30 110.28 92.84 112.00 92.00
C 113.41 90.49 113.00 88.55 112.00 87.00
C 108.86 88.47 106.26 90.72 103.00 92.00
C 101.72 91.72 99.50 92.76 99.00 91.00
C 94.83 89.19 91.28 82.76 94.00 78.00
C 95.53 78.93 97.17 79.23 99.00 79.00
C 101.28 77.46 106.79 77.28 109.00 79.00
C 110.33 79.00 111.67 79.00 113.00 79.00
C 113.30 75.10 113.70 72.41 112.00 69.00
C 110.07 67.74 108.09 66.00 107.00 64.00
C 106.55 63.85 105.50 63.97 105.00 64.00
C 103.43 63.61 100.78 64.94 100.00 63.00
C 91.66 63.21 84.10 71.52 85.00 80.00
M 104.00 73.00 
C 104.87 76.15 95.02 75.58 93.00 74.00
C 94.28 68.92 101.09 65.76 105.00 70.00
C 104.43 70.94 103.85 71.82 104.00 73.00 Z"/>
</g>
<g fill="None" fill-opacity="0.0" stroke="#F1F7F8" stroke-opacity="0.07" stroke-width="0.3"><path d="
M 105.00 64.00 
C 104.22 62.06 101.57 63.39 100.00 63.00
C 100.78 64.94 103.43 63.61 105.00 64.00 Z"/>
</g>
<g fill="None" fill-opacity="0.0" stroke="#F1F7F8" stroke-opacity="0.02" stroke-width="0.3"><path d="
M 124.00 64.00 
C 125.28 63.47 125.86 64.97 127.00 65.00
C 126.92 63.75 124.48 62.12 124.00 64.00 Z"/>
</g>
<g fill="None" fill-opacity="0.0" stroke="#6FB183" stroke-opacity="0.71" stroke-width="0.3"><path d="
M 127.00 65.00 
C 125.86 64.97 125.28 63.47 124.00 64.00
C 123.00 64.00 122.00 64.00 121.00 64.00
C 120.56 65.29 119.42 66.21 118.00 66.00
C 118.00 66.00 117.35 65.77 117.00 66.00
C 116.07 67.14 115.92 68.55 116.00 70.00
C 121.07 72.21 118.30 78.70 119.00 83.00
C 120.39 83.74 120.65 87.32 119.00 88.00
C 119.76 89.66 117.70 92.18 119.00 93.00
C 117.17 94.55 113.57 93.99 115.00 98.00
C 120.67 98.00 126.33 98.00 132.00 98.00
C 132.41 96.07 131.29 93.61 129.00 94.00
C 125.22 89.31 126.84 79.40 128.00 74.00
C 131.75 66.35 141.54 71.68 140.00 79.00 C 141.53 86.51 138.68 93.01 135.00 98.00
C 140.67 98.00 146.33 98.00 152.00 98.00
C 153.72 92.95 145.98 94.40 148.00 89.00
C 146.53 87.67 146.29 83.26 148.00 82.00
C 148.00 80.00 148.00 78.00 148.00 76.00
C 146.72 75.78 146.58 73.19 148.00 73.00
C 147.57 61.59 133.44 60.79 127.00 68.00
C 127.00 67.00 127.00 66.00 127.00 65.00 Z"/>
</g>
<g fill="None" fill-opacity="0.0" stroke="#F1F7F8" stroke-opacity="0.05" stroke-width="0.3"><path d="
M 161.00 64.00 
C 162.33 64.00 163.67 64.00 165.00 64.00
C 165.22 63.87 165.00 63.00 165.00 63.00
C 163.75 63.28 161.53 62.40 161.00 64.00 Z"/>
</g>
<g fill="None" fill-opacity="0.0" stroke="#6FB183" stroke-opacity="0.09" stroke-width="0.3"><path d="
M 165.00 64.00 
C 167.00 64.00 169.00 64.00 171.00 64.00
C 169.93 61.94 166.88 63.47 165.00 63.00
C 165.00 63.00 165.22 63.87 165.00 64.00 Z"/>
</g>
<g fill="None" fill-opacity="0.0" stroke="#F1F7F8" stroke-opacity="0.04" stroke-width="0.3"><path d="
M 197.00 64.00 
C 198.56 63.66 201.17 64.75 202.00 63.00
C 200.44 63.34 197.83 62.25 197.00 64.00 Z"/>
</g>
<g fill="None" fill-opacity="0.0" stroke="#6FB183" stroke-opacity="0.07" stroke-width="0.3"><path d="
M 229.00 64.00 
C 230.00 64.00 231.00 64.00 232.00 64.00
C 232.25 63.73 232.00 63.00 232.00 63.00
C 231.05 63.22 229.26 62.61 229.00 64.00 Z"/>
</g>
<g fill="None" fill-opacity="0.0" stroke="#F1F7F8" stroke-opacity="0.09" stroke-width="0.3"><path d="
M 232.00 64.00 
C 234.33 64.00 236.67 64.00 239.00 64.00
C 237.62 61.86 234.19 63.52 232.00 63.00
C 232.00 63.00 232.25 63.73 232.00 64.00 Z"/>
</g>
<g fill="None" fill-opacity="0.0" stroke="#F1F7F8" stroke-opacity="0.05" stroke-width="0.3"><path d="
M 271.00 64.00 
C 274.57 63.49 277.64 64.61 281.00 65.00
C 278.75 63.05 273.53 61.89 271.00 64.00 Z"/>
</g>
<g fill="None" fill-opacity="0.0" stroke="#F1F7F8" stroke-opacity="0.01" stroke-width="0.3"><path d="
M 112.00 69.00 
C 110.91 67.00 108.93 65.26 107.00 64.00
C 108.09 66.00 110.07 67.74 112.00 69.00 Z"/>
</g>
<g fill="None" fill-opacity="0.0" stroke="#F1F7F8" stroke-opacity="0.02" stroke-width="0.3"><path d="
M 118.00 66.00 
C 119.42 66.21 120.56 65.29 121.00 64.00
C 119.98 64.56 118.55 64.99 118.00 66.00 Z"/>
</g>
<g fill="None" fill-opacity="0.0" stroke="#6FB183" stroke-opacity="0.09" stroke-width="0.3"><path d="
M 156.00 68.00 
C 157.73 66.69 159.61 65.38 161.00 64.00
C 158.65 63.88 157.19 66.29 156.00 68.00 Z"/>
</g>
<g fill="None" fill-opacity="0.0" stroke="#14362A" stroke-opacity="0.73" stroke-width="0.3"><path d="
M 156.00 68.00 
C 152.35 70.35 155.35 74.95 154.00 78.00
C 157.77 75.75 155.45 81.00 158.00 82.00
C 158.97 80.72 162.13 82.90 163.00 84.00
C 164.28 83.73 165.72 84.77 166.00 86.00
C 167.68 86.75 169.04 88.43 170.00 90.00
C 170.83 92.81 167.71 93.63 166.00 95.00
C 163.92 94.92 160.72 95.69 160.00 93.00
C 159.83 92.67 159.22 92.26 159.00 92.00
C 158.21 93.78 156.88 89.95 157.00 89.00
C 157.61 87.39 154.84 84.81 154.00 87.00
C 153.44 89.52 155.19 93.30 153.00 95.00
C 153.76 96.89 155.84 98.53 158.00 98.00
C 159.28 98.28 161.50 97.24 162.00 99.00
C 163.35 98.22 164.72 97.70 166.00 99.00
C 166.26 97.61 168.05 98.22 169.00 98.00
C 169.93 96.89 171.17 97.93 172.00 96.00
C 172.41 95.17 172.97 94.13 174.00 94.00
C 176.43 93.18 177.06 91.05 176.00 89.00
C 174.25 88.17 175.34 85.56 175.00 84.00
C 174.84 80.33 170.76 79.06 168.00 78.00
C 166.72 78.27 165.28 77.23 165.00 76.00
C 164.57 74.05 162.33 73.99 161.00 73.00
C 160.77 71.10 161.57 69.05 163.00 68.00
C 163.47 66.66 166.58 66.43 167.00 68.00
C 167.00 68.00 167.71 67.75 168.00 68.00
C 169.01 69.09 170.22 70.59 171.00 72.00
C 171.40 74.55 172.77 72.91 175.00 74.00
C 174.24 71.21 176.28 68.23 175.00 66.00
C 174.13 65.05 172.32 65.46 172.00 64.00
C 172.00 64.00 171.50 64.00 171.00 64.00
C 169.00 64.00 167.00 64.00 165.00 64.00
C 163.67 64.00 162.33 64.00 161.00 64.00
C 159.61 65.38 157.73 66.69 156.00 68.00 Z"/>
</g>
<g fill="None" fill-opacity="0.0" stroke="#F1F7F8" stroke-opacity="0.05" stroke-width="0.3"><path d="
M 175.00 66.00 
C 174.72 64.77 173.28 63.73 172.00 64.00
C 172.32 65.46 174.13 65.05 175.00 66.00 Z"/>
</g>
<g fill="None" fill-opacity="0.0" stroke="#F1F7F8" stroke-opacity="0.05" stroke-width="0.3"><path d="
M 209.00 68.00 
C 209.25 66.07 207.47 64.83 206.00 64.00
C 206.78 65.41 207.99 66.91 209.00 68.00 Z"/>
</g>
<g fill="None" fill-opacity="0.0" stroke="#14362A" stroke-opacity="0.73" stroke-width="0.3"><path d="
M 218.00 73.00 
C 218.27 74.28 217.23 75.72 216.00 76.00
C 215.16 83.75 217.05 90.91 222.00 95.00
C 223.28 94.73 224.72 95.77 225.00 97.00
C 225.79 98.16 227.50 97.15 229.00 98.00
C 232.00 98.00 235.00 98.00 238.00 98.00
C 244.20 97.30 249.33 91.18 250.00 85.00
C 250.47 83.12 248.94 80.07 251.00 79.00
C 250.79 75.48 250.19 73.16 248.00 70.00
C 246.45 68.45 243.83 68.17 243.00 66.00
C 242.61 64.25 240.57 63.70 239.00 64.00
C 236.67 64.00 234.33 64.00 232.00 64.00
C 231.00 64.00 230.00 64.00 229.00 64.00
C 223.65 64.11 219.59 69.09 218.00 73.00
M 234.00 68.00 
C 235.54 67.63 236.40 69.43 238.00 69.00
C 239.29 69.44 240.21 70.58 240.00 72.00
C 240.57 72.94 241.15 73.82 241.00 75.00
C 242.60 75.53 241.72 77.75 242.00 79.00
C 243.01 80.34 241.35 83.76 242.00 86.00
C 241.89 87.00 242.47 88.73 241.00 89.00
C 241.64 91.43 238.67 91.46 238.00 93.00
C 239.85 93.70 236.60 94.51 236.00 95.00
C 234.72 94.72 232.50 95.76 232.00 94.00
C 231.50 94.00 231.00 94.00 231.00 94.00
C 228.58 92.70 226.96 90.43 226.00 88.00
C 226.41 86.44 225.54 85.31 225.00 84.00
C 223.66 83.53 223.43 80.42 225.00 80.00
C 225.00 79.50 225.00 79.00 225.00 79.00
C 223.72 78.78 223.58 76.19 225.00 76.00
C 225.89 73.02 227.54 68.52 231.00 68.00
C 231.22 66.72 233.81 66.58 234.00 68.00 Z"/>
</g>
<g fill="None" fill-opacity="0.0" stroke="#6FB183" stroke-opacity="0.15" stroke-width="0.3"><path d="
M 258.00 65.00 
C 259.00 64.89 260.73 65.47 261.00 64.00
C 260.05 64.22 258.26 63.61 258.00 65.00 Z"/>
</g>
<g fill="None" fill-opacity="0.0" stroke="#14362A" stroke-opacity="0.77" stroke-width="0.3"><path d="
M 258.00 65.00 
C 255.39 65.60 251.05 66.13 252.00 70.00
C 253.82 69.60 254.54 71.45 256.00 72.00
C 258.21 75.42 256.42 80.82 257.00 85.00
C 257.00 86.00 257.00 87.00 257.00 88.00
C 256.41 90.84 258.22 94.98 256.00 97.00
C 256.00 97.00 256.00 97.50 256.00 98.00
C 257.57 100.94 257.71 107.13 256.00 110.00
C 255.45 112.81 250.62 111.29 252.00 115.00
C 257.67 115.00 263.33 115.00 269.00 115.00
C 269.48 113.84 270.12 113.06 269.00 112.00
C 268.26 112.18 267.09 111.95 267.00 111.00
C 267.00 111.00 266.46 111.14 266.00 111.00
C 264.40 110.47 265.28 108.25 265.00 107.00
C 264.72 106.77 264.07 106.35 264.00 106.00
C 264.00 103.67 264.00 101.33 264.00 99.00
C 264.27 97.53 266.00 98.11 267.00 98.00
C 269.00 98.00 271.00 98.00 273.00 98.00
C 273.47 96.27 275.05 98.69 276.00 97.00
C 277.28 97.53 277.86 96.03 279.00 96.00
C 283.88 94.03 287.25 87.76 288.00 83.00
C 288.00 81.00 288.00 79.00 288.00 77.00
C 287.45 72.45 285.18 67.93 281.00 65.00
C 277.64 64.61 274.57 63.49 271.00 64.00
C 268.23 63.22 267.09 65.96 265.00 67.00
C 264.59 67.83 264.03 68.87 263.00 69.00
C 263.00 67.33 263.00 65.67 263.00 64.00
C 262.56 63.84 261.50 64.00 261.00 64.00
C 260.73 65.47 259.00 64.89 258.00 65.00
M 275.00 72.00 
C 275.65 70.33 277.73 73.10 278.00 74.00
C 278.25 74.27 278.00 75.00 278.00 75.00
C 279.43 76.05 280.23 78.10 280.00 80.00
C 280.06 82.12 280.23 84.23 279.00 86.00
C 280.76 86.66 279.11 89.47 278.00 90.00
C 278.88 92.65 275.34 91.13 275.00 93.00
C 276.68 94.08 272.23 95.37 271.00 95.00
C 269.17 94.73 266.70 93.98 266.00 92.00
C 265.51 89.65 263.55 87.11 265.00 84.00
C 263.43 81.06 263.29 74.87 265.00 72.00
C 268.50 71.09 271.78 69.09 275.00 72.00 Z"/>
</g>
<g fill="None" fill-opacity="0.0" stroke="#F1F7F8" stroke-opacity="0.17" stroke-width="0.3"><path d="
M 265.00 67.00 
C 263.17 66.85 264.67 64.24 263.00 64.00
C 263.00 65.67 263.00 67.33 263.00 69.00
C 264.03 68.87 264.59 67.83 265.00 67.00 Z"/>
</g>
<g fill="None" fill-opacity="0.0" stroke="#F1F7F8" stroke-opacity="0.05" stroke-width="0.3"><path d="
M 116.00 70.00 
C 115.92 68.55 116.07 67.14 117.00 66.00
C 115.28 66.21 114.07 69.29 116.00 70.00 Z"/>
</g>
<g fill="None" fill-opacity="0.0" stroke="#F1F7F8" stroke-opacity="0.05" stroke-width="0.3"><path d="
M 248.00 70.00 
C 247.24 67.79 244.85 66.97 243.00 66.00
C 243.83 68.17 246.45 68.45 248.00 70.00 Z"/>
</g>
<g fill="None" fill-opacity="0.0" stroke="#F1F7F8" stroke-opacity="0.02" stroke-width="0.3"><path d="
M 163.00 68.00 
C 164.33 68.00 165.67 68.00 167.00 68.00
C 166.58 66.43 163.47 66.66 163.00 68.00 Z"/>
</g>
<g fill="None" fill-opacity="0.0" stroke="#F1F7F8" stroke-opacity="0.02" stroke-width="0.3"><path d="
M 231.00 68.00 
C 232.00 68.00 233.00 68.00 234.00 68.00
C 233.81 66.58 231.22 66.72 231.00 68.00 Z"/>
</g>
<g fill="None" fill-opacity="0.0" stroke="#000000" stroke-opacity="0.00" stroke-width="0.3"><path d="
M 70.00 92.00 
C 70.95 91.13 70.54 89.32 72.00 89.00
C 72.15 86.90 73.59 85.27 73.00 83.00
C 71.48 81.04 71.28 75.89 73.00 74.00
C 71.90 64.75 58.46 67.69 58.00 76.00 C 56.07 83.97 60.48 94.05 70.00 92.00 Z"/>
</g>
<g fill="None" fill-opacity="0.0" stroke="#000000" stroke-opacity="0.00" stroke-width="0.3"><path d="
M 93.00 74.00 
C 96.50 73.38 101.32 75.27 104.00 73.00
C 103.85 71.82 104.43 70.94 105.00 70.00
C 101.09 65.76 94.28 68.92 93.00 74.00 Z"/>
</g>
<g fill="None" fill-opacity="0.0" stroke="#F1F7F8" stroke-opacity="0.01" stroke-width="0.3"><path d="
M 171.00 72.00 
C 170.22 70.59 169.01 69.09 168.00 68.00
C 167.75 69.93 169.53 71.17 171.00 72.00 Z"/>
</g>
<g fill="None" fill-opacity="0.0" stroke="#000000" stroke-opacity="0.00" stroke-width="0.3"><path d="
M 225.00 76.00 
C 225.00 77.00 225.00 78.00 225.00 79.00
C 225.00 79.00 225.00 79.50 225.00 80.00
C 225.00 81.33 225.00 82.67 225.00 84.00
C 225.54 85.31 226.41 86.44 226.00 88.00
C 228.12 89.43 229.32 92.04 231.00 94.00
C 231.00 94.00 231.50 94.00 232.00 94.00
C 233.33 94.00 234.67 94.00 236.00 94.00
C 236.80 93.87 237.11 92.91 238.00 93.00
C 238.67 91.46 241.64 91.43 241.00 89.00
C 241.11 88.00 240.53 86.27 242.00 86.00
C 241.35 83.76 243.01 80.34 242.00 79.00
C 240.40 78.47 241.28 76.25 241.00 75.00
C 241.15 73.82 240.57 72.94 240.00 72.00
C 238.99 71.45 238.56 70.02 238.00 69.00
C 236.40 69.43 235.54 67.63 234.00 68.00
C 233.00 68.00 232.00 68.00 231.00 68.00
C 227.54 68.52 225.89 73.02 225.00 76.00 Z"/>
</g>
<g fill="None" fill-opacity="0.0" stroke="#F1F7F8" stroke-opacity="0.02" stroke-width="0.3"><path d="
M 211.00 72.00 
C 210.78 71.05 211.39 69.26 210.00 69.00
C 210.22 69.95 209.61 71.74 211.00 72.00 Z"/>
</g>
<g fill="None" fill-opacity="0.0" stroke="#6FB183" stroke-opacity="0.08" stroke-width="0.3"><path d="
M 240.00 72.00 
C 240.21 70.58 239.29 69.44 238.00 69.00
C 238.56 70.02 238.99 71.45 240.00 72.00 Z"/>
</g>
<g fill="None" fill-opacity="0.0" stroke="#000000" stroke-opacity="0.00" stroke-width="0.3"><path d="
M 265.00 72.00 
C 265.00 76.00 265.00 80.00 265.00 84.00
C 263.55 87.11 265.51 89.65 266.00 92.00
C 267.68 92.71 269.08 94.01 271.00 94.00
C 272.56 94.41 273.69 93.54 275.00 93.00
C 275.34 91.13 278.88 92.65 278.00 90.00
C 277.63 88.46 279.43 87.60 279.00 86.00
C 280.23 84.23 280.06 82.12 280.00 80.00
C 278.80 78.89 278.34 76.71 278.00 75.00
C 278.00 75.00 278.25 74.27 278.00 74.00
C 276.75 73.70 276.29 72.17 275.00 72.00
C 271.78 69.09 268.50 71.09 265.00 72.00 Z"/>
</g>
<g fill="None" fill-opacity="0.0" stroke="#6FB183" stroke-opacity="0.07" stroke-width="0.3"><path d="
M 275.00 72.00 
C 276.29 72.17 276.75 73.70 278.00 74.00
C 277.73 73.10 275.65 70.33 275.00 72.00 Z"/>
</g>
<g fill="None" fill-opacity="0.0" stroke="#F1F7F8" stroke-opacity="0.02" stroke-width="0.3"><path d="
M 50.00 75.00 
C 51.46 74.68 51.05 72.87 52.00 72.00
C 50.77 72.28 49.73 73.72 50.00 75.00 Z"/>
</g>
<g fill="None" fill-opacity="0.0" stroke="#6FB183" stroke-opacity="0.12" stroke-width="0.3"><path d="
M 256.00 85.00 
C 256.27 84.75 257.00 85.00 257.00 85.00
C 256.42 80.82 258.21 75.42 256.00 72.00
C 256.00 76.33 256.00 80.67 256.00 85.00 Z"/>
</g>
<g fill="None" fill-opacity="0.0" stroke="#F1F7F8" stroke-opacity="0.02" stroke-width="0.3"><path d="
M 265.00 84.00 
C 265.00 80.00 265.00 76.00 265.00 72.00
C 263.29 74.87 263.43 81.06 265.00 84.00 Z"/>
</g>
<g fill="None" fill-opacity="0.0" stroke="#F1F7F8" stroke-opacity="0.05" stroke-width="0.3"><path d="
M 93.00 74.00 
C 95.02 75.58 104.87 76.15 104.00 73.00
C 101.32 75.27 96.50 73.38 93.00 74.00 Z"/>
</g>
<g fill="None" fill-opacity="0.0" stroke="#F1F7F8" stroke-opacity="0.07" stroke-width="0.3"><path d="
M 148.00 76.00 
C 148.00 75.00 148.00 74.00 148.00 73.00
C 146.58 73.19 146.72 75.78 148.00 76.00 Z"/>
</g>
<g fill="None" fill-opacity="0.0" stroke="#F1F7F8" stroke-opacity="0.05" stroke-width="0.3"><path d="
M 216.00 76.00 
C 217.23 75.72 218.27 74.28 218.00 73.00
C 216.54 73.32 216.95 75.13 216.00 76.00 Z"/>
</g>
<g fill="None" fill-opacity="0.0" stroke="#F1F7F8" stroke-opacity="0.00" stroke-width="0.3"><path d="
M 73.00 83.00 
C 73.00 80.00 73.00 77.00 73.00 74.00
C 71.28 75.89 71.48 81.04 73.00 83.00 Z"/>
</g>
<g fill="None" fill-opacity="0.0" stroke="#F1F7F8" stroke-opacity="0.00" stroke-width="0.3"><path d="
M 129.00 94.00 
C 126.79 87.83 128.58 80.60 128.00 74.00
C 126.84 79.40 125.22 89.31 129.00 94.00 Z"/>
</g>
<g fill="None" fill-opacity="0.0" stroke="#F1F7F8" stroke-opacity="0.03" stroke-width="0.3"><path d="
M 242.00 79.00 
C 241.72 77.75 242.60 75.53 241.00 75.00
C 241.28 76.25 240.40 78.47 242.00 79.00 Z"/>
</g>
<g fill="None" fill-opacity="0.0" stroke="#F1F7F8" stroke-opacity="0.03" stroke-width="0.3"><path d="
M 280.00 80.00 
C 280.23 78.10 279.43 76.05 278.00 75.00
C 278.34 76.71 278.80 78.89 280.00 80.00 Z"/>
</g>
<g fill="None" fill-opacity="0.0" stroke="#F1F7F8" stroke-opacity="0.04" stroke-width="0.3"><path d="
M 2.00 84.00 
C 2.00 81.33 2.00 78.67 2.00 76.00
C 0.28 77.57 0.50 82.36 2.00 84.00 Z"/>
</g>
<g fill="None" fill-opacity="0.0" stroke="#6FB183" stroke-opacity="0.19" stroke-width="0.3"><path d="
M 168.00 78.00 
C 167.72 76.77 166.28 75.73 165.00 76.00
C 165.28 77.23 166.72 78.27 168.00 78.00 Z"/>
</g>
<g fill="None" fill-opacity="0.0" stroke="#6FB183" stroke-opacity="0.09" stroke-width="0.3"><path d="
M 225.00 79.00 
C 225.00 78.00 225.00 77.00 225.00 76.00
C 223.58 76.19 223.72 78.78 225.00 79.00 Z"/>
</g>
<g fill="None" fill-opacity="0.0" stroke="#F1F7F8" stroke-opacity="0.05" stroke-width="0.3"><path d="
M 81.00 82.00 
C 81.00 80.33 81.00 78.67 81.00 77.00
C 79.35 77.68 79.61 81.26 81.00 82.00 Z"/>
</g>
<g fill="None" fill-opacity="0.0" stroke="#F1F7F8" stroke-opacity="0.02" stroke-width="0.3"><path d="
M 191.00 91.00 
C 190.41 86.49 192.22 80.75 190.00 77.00
C 190.59 81.51 188.78 87.25 191.00 91.00 Z"/>
</g>
<g fill="None" fill-opacity="0.0" stroke="#F1F7F8" stroke-opacity="0.00" stroke-width="0.3"><path d="
M 288.00 83.00 
C 289.69 82.04 289.43 78.03 288.00 77.00
C 288.00 79.00 288.00 81.00 288.00 83.00 Z"/>
</g>
<g fill="None" fill-opacity="0.0" stroke="#F1F7F8" stroke-opacity="0.10" stroke-width="0.3"><path d="
M 99.00 79.00 
C 102.33 79.00 105.67 79.00 109.00 79.00
C 106.79 77.28 101.28 77.46 99.00 79.00 Z"/>
</g>
<g fill="None" fill-opacity="0.0" stroke="#F1F7F8" stroke-opacity="0.01" stroke-width="0.3"><path d="
M 203.00 82.00 
C 204.42 81.81 204.28 79.22 203.00 79.00
C 203.00 80.00 203.00 81.00 203.00 82.00 Z"/>
</g>
<g fill="None" fill-opacity="0.0" stroke="#6FB183" stroke-opacity="0.24" stroke-width="0.3"><path d="
M 250.00 85.00 
C 252.06 83.93 250.53 80.88 251.00 79.00
C 248.94 80.07 250.47 83.12 250.00 85.00 Z"/>
</g>
<g fill="None" fill-opacity="0.0" stroke="#F1F7F8" stroke-opacity="0.01" stroke-width="0.3"><path d="
M 86.00 89.00 
C 85.05 86.12 84.77 83.17 85.00 80.00
C 83.39 81.94 82.97 87.69 86.00 89.00 Z"/>
</g>
<g fill="None" fill-opacity="0.0" stroke="#6FB183" stroke-opacity="0.12" stroke-width="0.3"><path d="
M 182.00 93.00 
C 184.29 89.66 182.36 84.17 183.00 80.00
C 180.71 83.34 182.64 88.83 182.00 93.00 Z"/>
</g>
<g fill="None" fill-opacity="0.0" stroke="#6FB183" stroke-opacity="0.13" stroke-width="0.3"><path d="
M 225.00 84.00 
C 225.00 82.67 225.00 81.33 225.00 80.00
C 223.43 80.42 223.66 83.53 225.00 84.00 Z"/>
</g>
<g fill="None" fill-opacity="0.0" stroke="#6FB183" stroke-opacity="0.13" stroke-width="0.3"><path d="
M 158.00 82.00 
C 159.36 82.66 160.66 83.27 162.00 84.00
C 162.44 84.16 163.00 84.00 163.00 84.00
C 162.13 82.90 158.97 80.72 158.00 82.00 Z"/>
</g>
<g fill="None" fill-opacity="0.0" stroke="#F1F7F8" stroke-opacity="0.07" stroke-width="0.3"><path d="
M 148.00 89.00 
C 148.00 86.67 148.00 84.33 148.00 82.00
C 146.29 83.26 146.53 87.67 148.00 89.00 Z"/>
</g>
<g fill="None" fill-opacity="0.0" stroke="#F1F7F8" stroke-opacity="0.04" stroke-width="0.3"><path d="
M 13.00 87.00 
C 13.04 85.46 12.11 83.84 11.00 83.00
C 10.96 84.54 11.89 86.16 13.00 87.00 Z"/>
</g>
<g fill="None" fill-opacity="0.0" stroke="#F1F7F8" stroke-opacity="0.15" stroke-width="0.3"><path d="
M 119.00 88.00 
C 120.65 87.32 120.39 83.74 119.00 83.00
C 119.00 84.67 119.00 86.33 119.00 88.00 Z"/>
</g>
<g fill="None" fill-opacity="0.0" stroke="#F1F7F8" stroke-opacity="0.06" stroke-width="0.3"><path d="
M 166.00 86.00 
C 165.72 84.77 164.28 83.73 163.00 84.00
C 163.00 84.00 162.44 84.16 162.00 84.00
C 162.66 85.35 164.59 85.85 166.00 86.00 Z"/>
</g>
<g fill="None" fill-opacity="0.0" stroke="#6FB183" stroke-opacity="0.27" stroke-width="0.3"><path d="
M 176.00 89.00 
C 175.66 87.44 176.75 84.83 175.00 84.00
C 175.34 85.56 174.25 88.17 176.00 89.00 Z"/>
</g>
<g fill="None" fill-opacity="0.0" stroke="#F1F7F8" stroke-opacity="0.11" stroke-width="0.3"><path d="
M 256.00 88.00 
C 256.27 88.25 257.00 88.00 257.00 88.00
C 257.00 87.00 257.00 86.00 257.00 85.00
C 257.00 85.00 256.27 84.75 256.00 85.00
C 256.00 86.00 256.00 87.00 256.00 88.00 Z"/>
</g>
<g fill="None" fill-opacity="0.0" stroke="#F1F7F8" stroke-opacity="0.02" stroke-width="0.3"><path d="
M 241.00 89.00 
C 242.47 88.73 241.89 87.00 242.00 86.00
C 240.53 86.27 241.11 88.00 241.00 89.00 Z"/>
</g>
<g fill="None" fill-opacity="0.0" stroke="#F1F7F8" stroke-opacity="0.03" stroke-width="0.3"><path d="
M 278.00 90.00 
C 279.11 89.47 280.76 86.66 279.00 86.00
C 279.43 87.60 277.63 88.46 278.00 90.00 Z"/>
</g>
<g fill="None" fill-opacity="0.0" stroke="#F1F7F8" stroke-opacity="0.01" stroke-width="0.3"><path d="
M 112.00 92.00 
C 114.54 91.48 114.60 87.55 112.00 87.00
C 113.00 88.55 113.41 90.49 112.00 92.00 Z"/>
</g>
<g fill="None" fill-opacity="0.0" stroke="#6FB183" stroke-opacity="0.05" stroke-width="0.3"><path d="
M 153.00 95.00 
C 155.19 93.30 153.44 89.52 154.00 87.00
C 151.81 88.70 153.56 92.48 153.00 95.00 Z"/>
</g>
<g fill="None" fill-opacity="0.0" stroke="#F1F7F8" stroke-opacity="0.02" stroke-width="0.3"><path d="
M 20.00 94.00 
C 18.22 91.64 15.29 90.11 13.00 88.00
C 14.54 90.65 17.18 92.86 20.00 94.00 Z"/>
</g>
<g fill="None" fill-opacity="0.0" stroke="#F1F7F8" stroke-opacity="0.02" stroke-width="0.3"><path d="
M 231.00 94.00 
C 229.32 92.04 228.12 89.43 226.00 88.00
C 226.96 90.43 228.58 92.70 231.00 94.00 Z"/>
</g>
<g fill="None" fill-opacity="0.0" stroke="#6FB183" stroke-opacity="0.10" stroke-width="0.3"><path d="
M 256.00 97.00 
C 258.22 94.98 256.41 90.84 257.00 88.00
C 257.00 88.00 256.27 88.25 256.00 88.00
C 256.00 91.00 256.00 94.00 256.00 97.00 Z"/>
</g>
<g fill="None" fill-opacity="0.0" stroke="#F1F7F8" stroke-opacity="0.02" stroke-width="0.3"><path d="
M 70.00 92.00 
C 71.23 91.72 72.27 90.28 72.00 89.00
C 70.54 89.32 70.95 91.13 70.00 92.00 Z"/>
</g>
<g fill="None" fill-opacity="0.0" stroke="#6FB183" stroke-opacity="0.16" stroke-width="0.3"><path d="
M 159.00 92.00 
C 158.44 90.98 158.01 89.55 157.00 89.00
C 156.88 89.95 158.21 93.78 159.00 92.00 Z"/>
</g>
<g fill="None" fill-opacity="0.0" stroke="#F1F7F8" stroke-opacity="0.08" stroke-width="0.3"><path d="
M 166.00 94.00 
C 165.77 94.15 166.00 95.00 166.00 95.00
C 167.71 93.63 170.83 92.81 170.00 90.00
C 168.46 90.96 168.14 93.41 166.00 94.00 Z"/>
</g>
<g fill="None" fill-opacity="0.0" stroke="#F1F7F8" stroke-opacity="0.01" stroke-width="0.3"><path d="
M 213.00 94.00 
C 212.90 92.53 213.53 89.37 211.00 90.00
C 210.96 91.54 211.89 93.16 213.00 94.00 Z"/>
</g>
<g fill="None" fill-opacity="0.0" stroke="#F1F7F8" stroke-opacity="0.02" stroke-width="0.3"><path d="
M 103.00 92.00 
C 102.50 90.24 100.28 91.28 99.00 91.00
C 99.50 92.76 101.72 91.72 103.00 92.00 Z"/>
</g>
<g fill="None" fill-opacity="0.0" stroke="#F1F7F8" stroke-opacity="0.02" stroke-width="0.3"><path d="
M 8.00 95.00 
C 7.58 93.64 6.20 92.67 5.00 92.00
C 5.42 93.36 6.80 94.33 8.00 95.00 Z"/>
</g>
<g fill="None" fill-opacity="0.0" stroke="#F1F7F8" stroke-opacity="0.03" stroke-width="0.3"><path d="
M 33.00 94.00 
C 34.42 94.21 35.56 93.29 36.00 92.00
C 34.98 92.56 33.55 92.99 33.00 94.00 Z"/>
</g>
<g fill="None" fill-opacity="0.0" stroke="#F1F7F8" stroke-opacity="0.05" stroke-width="0.3"><path d="
M 81.00 98.00 
C 84.20 98.83 85.70 95.70 85.00 93.00
C 83.82 93.15 82.94 92.57 82.00 92.00
C 82.70 93.68 84.76 94.81 84.00 97.00
C 83.05 97.22 81.26 96.61 81.00 98.00 Z"/>
</g>
<g fill="None" fill-opacity="0.0" stroke="#F1F7F8" stroke-opacity="0.09" stroke-width="0.3"><path d="
M 271.00 95.00 
C 270.97 95.00 271.00 94.00 271.00 94.00
C 269.08 94.01 267.68 92.71 266.00 92.00
C 266.70 93.98 269.17 94.73 271.00 95.00 Z"/>
</g>
<g fill="None" fill-opacity="0.0" stroke="#F1F7F8" stroke-opacity="0.03" stroke-width="0.3"><path d="
M 57.00 98.00 
C 55.91 96.00 53.93 94.26 52.00 93.00
C 53.09 95.00 55.07 96.74 57.00 98.00 Z"/>
</g>
<g fill="None" fill-opacity="0.0" stroke="#6FB183" stroke-opacity="0.05" stroke-width="0.3"><path d="
M 166.00 95.00 
C 166.00 95.00 165.77 94.15 166.00 94.00
C 163.96 93.89 161.67 94.42 160.00 93.00
C 160.72 95.69 163.92 94.92 166.00 95.00 Z"/>
</g>
<g fill="None" fill-opacity="0.0" stroke="#6FB183" stroke-opacity="0.14" stroke-width="0.3"><path d="
M 236.00 94.00 
C 235.80 94.40 236.00 95.00 236.00 95.00
C 236.60 94.51 239.85 93.70 238.00 93.00
C 237.11 92.91 236.80 93.87 236.00 94.00 Z"/>
</g>
<g fill="None" fill-opacity="0.0" stroke="#6FB183" stroke-opacity="0.16" stroke-width="0.3"><path d="
M 271.00 94.00 
C 271.00 94.00 270.97 95.00 271.00 95.00
C 272.23 95.37 276.68 94.08 275.00 93.00
C 273.69 93.54 272.56 94.41 271.00 94.00 Z"/>
</g>
<g fill="None" fill-opacity="0.0" stroke="#F1F7F8" stroke-opacity="0.03" stroke-width="0.3"><path d="
M 29.00 95.00 
C 29.95 94.78 31.74 95.39 32.00 94.00
C 31.05 94.22 29.26 93.61 29.00 95.00 Z"/>
</g>
<g fill="None" fill-opacity="0.0" stroke="#F1F7F8" stroke-opacity="0.06" stroke-width="0.3"><path d="
M 172.00 96.00 
C 172.58 97.96 174.52 94.97 174.00 94.00
C 172.97 94.13 172.41 95.17 172.00 96.00 Z"/>
</g>
<g fill="None" fill-opacity="0.0" stroke="#F1F7F8" stroke-opacity="0.03" stroke-width="0.3"><path d="
M 200.00 98.00 
C 199.42 97.16 198.29 95.39 200.00 95.00
C 200.00 95.00 199.94 94.01 200.00 94.00
C 197.69 94.41 197.62 97.57 200.00 98.00 Z"/>
</g>
<g fill="None" fill-opacity="0.0" stroke="#F1F7F8" stroke-opacity="0.09" stroke-width="0.3"><path d="
M 236.00 95.00 
C 236.00 95.00 235.80 94.40 236.00 94.00
C 234.67 94.00 233.33 94.00 232.00 94.00
C 232.50 95.76 234.72 94.72 236.00 95.00 Z"/>
</g>
<g fill="None" fill-opacity="0.0" stroke="#F1F7F8" stroke-opacity="0.05" stroke-width="0.3"><path d="
M 94.00 98.00 
C 93.14 96.61 91.28 96.16 90.00 95.00
C 90.63 96.46 92.23 98.21 94.00 98.00 Z"/>
</g>
<g fill="None" fill-opacity="0.0" stroke="#14362A" stroke-opacity="0.52" stroke-width="0.3"><path d="
M 200.00 98.00 
C 205.60 97.80 211.22 98.41 216.00 97.00
C 215.87 95.97 214.83 95.41 214.00 95.00
C 209.40 96.22 204.57 96.25 200.00 95.00
C 198.29 95.39 199.42 97.16 200.00 98.00 Z"/>
</g>
<g fill="None" fill-opacity="0.0" stroke="#6FB183" stroke-opacity="0.08" stroke-width="0.3"><path d="
M 225.00 97.00 
C 224.72 95.77 223.28 94.73 222.00 95.00
C 222.32 96.46 224.13 96.05 225.00 97.00 Z"/>
</g>
<g fill="None" fill-opacity="0.0" stroke="#F1F7F8" stroke-opacity="0.04" stroke-width="0.3"><path d="
M 105.00 98.00 
C 106.42 98.21 107.56 97.29 108.00 96.00
C 106.98 96.56 105.55 96.99 105.00 98.00 Z"/>
</g>
<g fill="None" fill-opacity="0.0" stroke="#F1F7F8" stroke-opacity="0.04" stroke-width="0.3"><path d="
M 276.00 97.00 
C 276.56 98.97 278.76 97.28 279.00 96.00
C 277.86 96.03 277.28 97.53 276.00 97.00 Z"/>
</g>
<g fill="None" fill-opacity="0.0" stroke="#F1F7F8" stroke-opacity="0.04" stroke-width="0.3"><path d="
M 64.00 99.00 
C 65.90 99.23 67.95 98.43 69.00 97.00
C 67.29 97.34 65.11 97.80 64.00 99.00 Z"/>
</g>
<g fill="None" fill-opacity="0.0" stroke="#F1F7F8" stroke-opacity="0.02" stroke-width="0.3"><path d="
M 98.00 99.00 
C 97.73 97.53 96.00 98.11 95.00 98.00
C 95.27 99.47 97.00 98.89 98.00 99.00 Z"/>
</g>
<g fill="None" fill-opacity="0.0" stroke="#F1F7F8" stroke-opacity="0.01" stroke-width="0.3"><path d="
M 162.00 99.00 
C 161.50 97.24 159.28 98.28 158.00 98.00
C 158.50 99.76 160.72 98.72 162.00 99.00 Z"/>
</g>
<g fill="None" fill-opacity="0.0" stroke="#F1F7F8" stroke-opacity="0.01" stroke-width="0.3"><path d="
M 166.00 99.00 
C 166.95 98.78 168.74 99.39 169.00 98.00
C 168.05 98.22 166.26 97.61 166.00 99.00 Z"/>
</g>
<g fill="None" fill-opacity="0.0" stroke="#F1F7F8" stroke-opacity="0.01" stroke-width="0.3"><path d="
M 238.00 98.00 
C 235.00 98.00 232.00 98.00 229.00 98.00
C 230.89 99.72 236.04 99.52 238.00 98.00 Z"/>
</g>
<g fill="None" fill-opacity="0.0" stroke="#6FB183" stroke-opacity="0.10" stroke-width="0.3"><path d="
M 256.00 110.00 
C 257.71 107.13 257.57 100.94 256.00 98.00
C 256.00 102.00 256.00 106.00 256.00 110.00 Z"/>
</g>
<g fill="None" fill-opacity="0.0" stroke="#F1F7F8" stroke-opacity="0.01" stroke-width="0.3"><path d="
M 273.00 98.00 
C 271.00 98.00 269.00 98.00 267.00 98.00
C 267.52 99.79 274.65 99.37 273.00 98.00 Z"/>
</g>
<g fill="None" fill-opacity="0.0" stroke="#F1F7F8" stroke-opacity="0.02" stroke-width="0.3"><path d="
M 264.00 106.00 
C 265.71 104.74 265.47 100.33 264.00 99.00
C 264.00 101.33 264.00 103.67 264.00 106.00 Z"/>
</g>
<g fill="None" fill-opacity="0.0" stroke="#F1F7F8" stroke-opacity="0.01" stroke-width="0.3"><path d="
M 266.00 111.00 
C 265.72 109.75 266.60 107.53 265.00 107.00
C 265.28 108.25 264.40 110.47 266.00 111.00 Z"/>
</g>
<g fill="None" fill-opacity="0.0" stroke="#F1F7F8" stroke-opacity="0.04" stroke-width="0.3"><path d="
M 269.00 112.00 
C 270.96 111.14 267.72 110.72 267.00 111.00
C 267.09 111.95 268.26 112.18 269.00 112.00 Z"/>
</g>
<g fill="None" fill-opacity="0.0" stroke="#F1F7F8" stroke-opacity="0.02" stroke-width="0.3"><path d="
M 252.00 116.00 
L 269.00 116.00
C 269.00 116.00 268.78 115.38 269.00 115.00
C 263.33 115.00 257.67 115.00 252.00 115.00
C 252.00 115.00 252.00 115.50 252.00 116.00 Z"/>
</g>
<g fill="#000000" fill-opacity="0.00" stroke="None">
<path d="
M 0.00 116.00 
L 252.00 116.00
C 252.00 115.50 252.00 115.00 252.00 115.00
C 250.62 111.29 255.45 112.81 256.00 110.00
C 256.00 106.00 256.00 102.00 256.00 98.00
C 256.00 97.50 256.00 97.00 256.00 97.00
C 256.00 94.00 256.00 91.00 256.00 88.00
C 256.00 87.00 256.00 86.00 256.00 85.00
C 256.00 80.67 256.00 76.33 256.00 72.00
C 254.54 71.45 253.82 69.60 252.00 70.00
C 251.05 66.13 255.39 65.60 258.00 65.00
C 258.26 63.61 260.05 64.22 261.00 64.00
C 261.50 64.00 262.56 63.84 263.00 64.00
C 264.67 64.24 263.17 66.85 265.00 67.00
C 267.09 65.96 268.23 63.22 271.00 64.00
C 273.53 61.89 278.75 63.05 281.00 65.00
C 285.18 67.93 287.45 72.45 288.00 77.00
C 289.43 78.03 289.69 82.04 288.00 83.00
C 287.25 87.76 283.88 94.03 279.00 96.00
C 278.76 97.28 276.56 98.97 276.00 97.00
C 275.05 98.69 273.47 96.27 273.00 98.00
C 274.65 99.37 267.52 99.79 267.00 98.00
C 266.00 98.11 264.27 97.53 264.00 99.00
C 265.47 100.33 265.71 104.74 264.00 106.00
C 264.07 106.35 264.72 106.77 265.00 107.00
C 266.60 107.53 265.72 109.75 266.00 111.00
C 266.46 111.14 267.00 111.00 267.00 111.00
C 267.72 110.72 270.96 111.14 269.00 112.00
C 270.12 113.06 269.48 113.84 269.00 115.00
C 268.78 115.38 269.00 116.00 269.00 116.00
L 290.00 116.00
L 290.00 0.00
L 0.00 0.00
L 0.00 116.00
M 66.00 7.00 
C 66.88 11.11 63.27 13.60 62.00 17.00
C 60.74 18.93 59.00 20.91 57.00 22.00
C 54.66 24.58 51.21 23.99 48.00 24.00
C 47.74 25.39 45.95 24.78 45.00 25.00
C 43.83 31.89 46.19 49.69 37.00 37.00
C 36.13 36.05 34.32 36.46 34.00 35.00
C 33.50 35.01 33.00 35.00 33.00 35.00
C 30.67 35.00 28.33 35.00 26.00 35.00
C 22.21 35.32 18.15 37.73 18.00 42.00
C 18.00 44.00 18.00 46.00 18.00 48.00
C 18.25 50.88 20.46 53.63 23.00 55.00
C 24.99 55.28 26.78 56.48 29.00 56.00
C 29.50 55.98 30.00 56.00 30.00 56.00
C 32.15 54.12 37.26 54.57 39.00 57.00
C 41.79 68.00 25.49 59.24 20.77 63.77 C 13.70 67.38 10.76 75.41 11.00 83.00
C 12.11 83.84 13.04 85.46 13.00 87.00
C 13.03 87.50 13.00 88.00 13.00 88.00
C 15.29 90.11 18.22 91.64 20.00 94.00
C 23.27 93.30 25.77 95.43 29.00 95.00
C 29.26 93.61 31.05 94.22 32.00 94.00
C 32.49 94.06 33.00 94.00 33.00 94.00
C 33.55 92.99 34.98 92.56 36.00 92.00
C 41.31 91.79 40.69 81.25 47.00 85.00
C 44.23 102.05 19.06 104.41 8.00 95.00
C 6.80 94.33 5.42 93.36 5.00 92.00
C 4.77 89.08 1.25 87.32 2.00 84.00
C 0.50 82.36 0.28 77.57 2.00 76.00
C 2.65 68.66 8.98 61.92 16.00 60.00
C 15.89 59.00 16.47 57.27 15.00 57.00
C 13.80 56.33 12.42 55.36 12.00 54.00
C 6.87 47.51 8.36 36.47 16.00 33.00
C 16.55 31.99 17.98 31.56 19.00 31.00
C 24.09 27.61 33.91 33.05 37.00 28.00
C 36.72 26.72 37.76 24.50 36.00 24.00
C 33.32 24.54 31.22 23.08 29.00 22.00
C 27.80 21.33 26.42 20.36 26.00 19.00
C 22.96 16.00 18.11 10.19 21.00 6.00
C 23.28 4.46 28.79 4.28 31.00 6.00
C 35.62 6.43 40.35 10.21 41.00 15.00
C 41.14 15.23 42.62 15.22 43.00 15.00
C 42.47 13.72 43.97 13.14 44.00 12.00
C 45.89 9.38 48.35 6.76 51.00 5.00
C 54.12 4.43 56.76 2.32 60.00 2.00
C 60.53 0.40 62.75 1.28 64.00 1.00
C 64.50 1.02 65.66 0.77 66.00 1.00
C 67.43 2.03 67.69 6.04 66.00 7.00
M 191.00 50.00 
C 191.03 50.50 191.00 51.50 191.00 52.00
C 191.00 57.00 191.00 62.00 191.00 67.00
C 192.25 66.70 192.71 65.17 194.00 65.00
C 194.94 64.43 195.82 63.85 197.00 64.00
C 197.83 62.25 200.44 63.34 202.00 63.00
C 203.56 62.59 204.69 63.46 206.00 64.00
C 207.47 64.83 209.25 66.07 209.00 68.00
C 209.26 68.24 209.77 68.71 210.00 69.00
C 211.39 69.26 210.78 71.05 211.00 72.00
C 211.86 77.77 210.77 83.54 211.00 90.00
C 213.53 89.37 212.90 92.53 213.00 94.00
C 213.29 94.22 213.73 94.81 214.00 95.00
C 214.83 95.41 215.87 95.97 216.00 97.00
C 211.22 98.41 205.60 97.80 200.00 98.00
C 197.62 97.57 197.69 94.41 200.00 94.00
C 206.12 93.82 203.05 86.23 203.00 82.00
C 203.00 81.00 203.00 80.00 203.00 79.00
C 204.84 75.83 202.34 72.83 201.00 70.00
C 196.59 69.66 190.56 71.04 190.00 77.00
C 192.22 80.75 190.41 86.49 191.00 91.00
C 191.13 93.86 194.51 95.18 195.00 98.00
C 189.26 97.66 183.55 97.14 178.00 98.00
C 176.57 93.99 180.17 94.55 182.00 93.00
C 182.64 88.83 180.71 83.34 183.00 80.00
C 182.72 78.01 181.52 76.22 182.00 74.00
C 182.00 68.33 182.00 62.67 182.00 57.00
C 182.53 54.47 179.25 55.25 178.00 54.00
C 177.68 47.52 184.60 49.38 189.00 47.00
C 190.29 47.44 191.21 48.58 191.00 50.00
M 81.00 51.00 
C 81.00 59.67 81.00 68.33 81.00 77.00
C 81.00 78.67 81.00 80.33 81.00 82.00
C 80.52 84.64 80.43 89.58 82.00 92.00
C 82.94 92.57 83.82 93.15 85.00 93.00
C 85.70 95.70 84.20 98.83 81.00 98.00
C 78.51 97.71 76.61 99.64 74.00 99.00
C 73.87 94.76 71.83 95.66 69.00 97.00
C 67.95 98.43 65.90 99.23 64.00 99.00
C 61.43 99.47 59.35 98.46 57.00 98.00
C 55.07 96.74 53.09 95.00 52.00 93.00
C 48.16 88.19 48.15 80.65 50.00 75.00
C 49.73 73.72 50.77 72.28 52.00 72.00
C 54.22 66.48 60.89 62.52 67.00 63.00
C 68.00 63.11 69.73 62.53 70.00 64.00
C 71.00 64.00 72.00 64.00 73.00 64.00
C 73.18 60.65 73.69 55.11 69.00 55.00
C 66.73 53.98 68.81 50.34 71.00 51.00
C 71.45 50.85 72.00 51.00 72.00 51.00
C 72.73 49.65 74.83 50.04 76.00 49.00
C 76.48 48.91 77.58 49.19 78.00 49.00
C 78.84 46.81 81.61 49.39 81.00 51.00
M 105.00 64.00 
C 105.50 63.97 106.55 63.85 107.00 64.00
C 108.93 65.26 110.91 67.00 112.00 69.00
C 113.70 72.41 113.30 75.10 113.00 79.00
C 111.67 79.00 110.33 79.00 109.00 79.00
C 105.67 79.00 102.33 79.00 99.00 79.00
C 97.17 79.23 95.53 78.93 94.00 78.00
C 91.28 82.76 94.83 89.19 99.00 91.00
C 100.28 91.28 102.50 90.24 103.00 92.00
C 106.26 90.72 108.86 88.47 112.00 87.00
C 114.60 87.55 114.54 91.48 112.00 92.00
C 110.28 92.84 110.01 95.30 108.00 96.00
C 107.56 97.29 106.42 98.21 105.00 98.00
C 103.03 99.59 100.34 98.80 98.00 99.00
C 97.00 98.89 95.27 99.47 95.00 98.00
C 94.51 98.06 94.00 98.00 94.00 98.00
C 92.23 98.21 90.63 96.46 90.00 95.00
C 87.69 93.86 86.23 91.47 86.00 89.00
C 82.97 87.69 83.39 81.94 85.00 80.00
C 84.10 71.52 91.66 63.21 100.00 63.00
C 101.57 63.39 104.22 62.06 105.00 64.00
M 127.00 65.00 
C 127.00 66.00 127.00 67.00 127.00 68.00
C 133.44 60.79 147.57 61.59 148.00 73.00
C 148.00 74.00 148.00 75.00 148.00 76.00
C 148.00 78.00 148.00 80.00 148.00 82.00
C 148.00 84.33 148.00 86.67 148.00 89.00
C 145.98 94.40 153.72 92.95 152.00 98.00
C 146.33 98.00 140.67 98.00 135.00 98.00
C 138.68 93.01 141.53 86.51 140.00 79.00 C 141.54 71.68 131.75 66.35 128.00 74.00
C 128.58 80.60 126.79 87.83 129.00 94.00
C 131.29 93.61 132.41 96.07 132.00 98.00
C 126.33 98.00 120.67 98.00 115.00 98.00
C 113.57 93.99 117.17 94.55 119.00 93.00
C 117.70 92.18 119.76 89.66 119.00 88.00
C 119.00 86.33 119.00 84.67 119.00 83.00
C 118.30 78.70 121.07 72.21 116.00 70.00
C 114.07 69.29 115.28 66.21 117.00 66.00
C 117.35 65.77 118.00 66.00 118.00 66.00
C 118.55 64.99 119.98 64.56 121.00 64.00
C 122.00 64.00 123.00 64.00 124.00 64.00
C 124.48 62.12 126.92 63.75 127.00 65.00
M 171.00 64.00 
C 171.50 64.00 172.00 64.00 172.00 64.00
C 173.28 63.73 174.72 64.77 175.00 66.00
C 176.28 68.23 174.24 71.21 175.00 74.00
C 172.77 72.91 171.40 74.55 171.00 72.00
C 169.53 71.17 167.75 69.93 168.00 68.00
C 167.71 67.75 167.00 68.00 167.00 68.00
C 165.67 68.00 164.33 68.00 163.00 68.00
C 161.57 69.05 160.77 71.10 161.00 73.00
C 162.33 73.99 164.57 74.05 165.00 76.00
C 166.28 75.73 167.72 76.77 168.00 78.00
C 170.76 79.06 174.84 80.33 175.00 84.00
C 176.75 84.83 175.66 87.44 176.00 89.00
C 177.06 91.05 176.43 93.18 174.00 94.00
C 174.52 94.97 172.58 97.96 172.00 96.00
C 171.17 97.93 169.93 96.89 169.00 98.00
C 168.74 99.39 166.95 98.78 166.00 99.00
C 164.72 97.70 163.35 98.22 162.00 99.00
C 160.72 98.72 158.50 99.76 158.00 98.00
C 155.84 98.53 153.76 96.89 153.00 95.00
C 153.56 92.48 151.81 88.70 154.00 87.00
C 154.84 84.81 157.61 87.39 157.00 89.00
C 158.01 89.55 158.44 90.98 159.00 92.00
C 159.22 92.26 159.83 92.67 160.00 93.00
C 161.67 94.42 163.96 93.89 166.00 94.00
C 168.14 93.41 168.46 90.96 170.00 90.00
C 169.04 88.43 167.68 86.75 166.00 86.00
C 164.59 85.85 162.66 85.35 162.00 84.00
C 160.66 83.27 159.36 82.66 158.00 82.00
C 155.45 81.00 157.77 75.75 154.00 78.00
C 155.35 74.95 152.35 70.35 156.00 68.00
C 157.19 66.29 158.65 63.88 161.00 64.00
C 161.53 62.40 163.75 63.28 165.00 63.00
C 166.88 63.47 169.93 61.94 171.00 64.00
M 239.00 64.00 
C 240.57 63.70 242.61 64.25 243.00 66.00
C 244.85 66.97 247.24 67.79 248.00 70.00
C 250.19 73.16 250.79 75.48 251.00 79.00
C 250.53 80.88 252.06 83.93 250.00 85.00
C 249.33 91.18 244.20 97.30 238.00 98.00
C 236.04 99.52 230.89 99.72 229.00 98.00
C 227.50 97.15 225.79 98.16 225.00 97.00
C 224.13 96.05 222.32 96.46 222.00 95.00
C 217.05 90.91 215.16 83.75 216.00 76.00
C 216.95 75.13 216.54 73.32 218.00 73.00
C 219.59 69.09 223.65 64.11 229.00 64.00
C 229.26 62.61 231.05 63.22 232.00 63.00
C 234.19 63.52 237.62 61.86 239.00 64.00 Z"/>
</g>
<g fill="#F1F7F8" fill-opacity="0.08" stroke="None">
<path d="
M 60.00 2.00 
C 61.28 1.72 63.50 2.76 64.00 1.00
C 62.75 1.28 60.53 0.40 60.00 2.00 Z"/>
</g>
<g fill="#6FB183" fill-opacity="0.69" stroke="None">
<path d="
M 60.00 2.00 
C 56.76 2.32 54.12 4.43 51.00 5.00
C 49.11 7.62 46.65 10.24 44.00 12.00
C 43.97 13.14 42.47 13.72 43.00 15.00
C 42.43 15.94 41.85 16.82 42.00 18.00
C 40.61 17.74 41.22 15.95 41.00 15.00
C 40.35 10.21 35.62 6.43 31.00 6.00
C 27.67 6.00 24.33 6.00 21.00 6.00
C 18.11 10.19 22.96 16.00 26.00 19.00
C 27.20 19.67 28.58 20.64 29.00 22.00
C 31.22 23.08 33.32 24.54 36.00 24.00
C 37.96 20.95 39.15 27.54 37.00 28.00
C 33.91 33.05 24.09 27.61 19.00 31.00
C 18.56 32.29 17.42 33.21 16.00 33.00
C 8.36 36.47 6.87 47.51 12.00 54.00
C 13.20 54.67 14.58 55.64 15.00 57.00
C 16.47 57.27 15.89 59.00 16.00 60.00
C 8.98 61.92 2.65 68.66 2.00 76.00
C 2.00 78.67 2.00 81.33 2.00 84.00
C 1.25 87.32 4.77 89.08 5.00 92.00
C 6.20 92.67 7.58 93.64 8.00 95.00
C 19.06 104.41 44.23 102.05 47.00 85.00
C 40.69 81.25 41.31 91.79 36.00 92.00
C 35.56 93.29 34.42 94.21 33.00 94.00
C 33.00 94.00 32.49 94.06 32.00 94.00
C 31.74 95.39 29.95 94.78 29.00 95.00
C 25.77 95.43 23.27 93.30 20.00 94.00
C 17.18 92.86 14.54 90.65 13.00 88.00
C 13.00 88.00 13.03 87.50 13.00 87.00
C 11.89 86.16 10.96 84.54 11.00 83.00
C 10.76 75.41 13.70 67.38 20.77 63.77 C 25.49 59.24 41.79 68.00 39.00 57.00
C 36.21 55.99 33.11 55.82 30.00 56.00
C 30.00 56.00 29.50 55.98 29.00 56.00
C 27.72 58.05 24.00 56.65 23.00 55.00
C 20.46 53.63 18.25 50.88 18.00 48.00
C 16.57 46.97 16.31 42.96 18.00 42.00
C 18.15 37.73 22.21 35.32 26.00 35.00
C 27.33 33.53 31.74 33.29 33.00 35.00
C 33.00 35.00 33.50 35.01 34.00 35.00
C 35.28 34.73 36.72 35.77 37.00 37.00
C 46.19 49.69 43.83 31.89 45.00 25.00
C 45.26 23.61 47.05 24.22 48.00 24.00
C 51.21 23.99 54.66 24.58 57.00 22.00
C 58.26 20.07 60.00 18.09 62.00 17.00
C 63.27 13.60 66.88 11.11 66.00 7.00
C 66.00 5.00 66.00 3.00 66.00 1.00
C 65.66 0.77 64.50 1.02 64.00 1.00
C 63.50 2.76 61.28 1.72 60.00 2.00
M 57.00 9.00 
C 54.59 14.21 51.50 9.74 57.00 9.00
M 34.00 17.00 
C 34.83 17.41 35.87 17.97 36.00 19.00
C 34.23 19.21 32.63 17.46 32.00 16.00
C 30.64 14.54 27.78 14.42 28.00 12.00
C 30.35 13.02 32.85 14.58 34.00 17.00
M 53.00 12.00 
C 51.16 16.82 48.29 12.39 53.00 12.00 Z"/>
</g>
<g fill="#F1F7F8" fill-opacity="0.08" stroke="None">
<path d="
M 66.00 7.00 
C 67.69 6.04 67.43 2.03 66.00 1.00
C 66.00 3.00 66.00 5.00 66.00 7.00 Z"/>
</g>
<g fill="#F1F7F8" fill-opacity="0.02" stroke="None">
<path d="
M 21.00 6.00 
C 24.33 6.00 27.67 6.00 31.00 6.00
C 28.79 4.28 23.28 4.46 21.00 6.00 Z"/>
</g>
<g fill="#F1F7F8" fill-opacity="0.02" stroke="None">
<path d="
M 44.00 12.00 
C 46.65 10.24 49.11 7.62 51.00 5.00
C 48.35 6.76 45.89 9.38 44.00 12.00 Z"/>
</g>
<g fill="#F1F7F8" fill-opacity="0.03" stroke="None">
<path d="
M 57.00 9.00 
C 51.50 9.74 54.59 14.21 57.00 9.00 Z"/>
</g>
<g fill="#000000" fill-opacity="0.00" stroke="None">
<path d="
M 32.00 16.00 
C 32.80 16.13 33.11 17.09 34.00 17.00
C 32.85 14.58 30.35 13.02 28.00 12.00
C 27.78 14.42 30.64 14.54 32.00 16.00 Z"/>
</g>
<g fill="#14362A" fill-opacity="0.01" stroke="None">
<path d="
M 53.00 12.00 
C 48.29 12.39 51.16 16.82 53.00 12.00 Z"/>
</g>
<g fill="#F1F7F8" fill-opacity="0.01" stroke="None">
<path d="
M 43.00 15.00 
C 42.62 15.22 41.14 15.23 41.00 15.00
C 41.22 15.95 40.61 17.74 42.00 18.00
C 41.85 16.82 42.43 15.94 43.00 15.00 Z"/>
</g>
<g fill="#F1F7F8" fill-opacity="0.02" stroke="None">
<path d="
M 34.00 17.00 
C 33.11 17.09 32.80 16.13 32.00 16.00
C 32.63 17.46 34.23 19.21 36.00 19.00
C 35.87 17.97 34.83 17.41 34.00 17.00 Z"/>
</g>
<g fill="#F1F7F8" fill-opacity="0.02" stroke="None">
<path d="
M 57.00 22.00 
C 59.00 20.91 60.74 18.93 62.00 17.00
C 60.00 18.09 58.26 20.07 57.00 22.00 Z"/>
</g>
<g fill="#F1F7F8" fill-opacity="0.04" stroke="None">
<path d="
M 29.00 22.00 
C 28.58 20.64 27.20 19.67 26.00 19.00
C 26.42 20.36 27.80 21.33 29.00 22.00 Z"/>
</g>
<g fill="#F1F7F8" fill-opacity="0.01" stroke="None">
<path d="
M 36.00 24.00 
C 37.76 24.50 36.72 26.72 37.00 28.00
C 39.15 27.54 37.96 20.95 36.00 24.00 Z"/>
</g>
<g fill="#F1F7F8" fill-opacity="0.02" stroke="None">
<path d="
M 45.00 25.00 
C 45.95 24.78 47.74 25.39 48.00 24.00
C 47.05 24.22 45.26 23.61 45.00 25.00 Z"/>
</g>
<g fill="#F1F7F8" fill-opacity="0.05" stroke="None">
<path d="
M 16.00 33.00 
C 17.42 33.21 18.56 32.29 19.00 31.00
C 17.98 31.56 16.55 31.99 16.00 33.00 Z"/>
</g>
<g fill="#F1F7F8" fill-opacity="0.08" stroke="None">
<path d="
M 26.00 35.00 
C 28.33 35.00 30.67 35.00 33.00 35.00
C 31.74 33.29 27.33 33.53 26.00 35.00 Z"/>
</g>
<g fill="#F1F7F8" fill-opacity="0.02" stroke="None">
<path d="
M 37.00 37.00 
C 36.72 35.77 35.28 34.73 34.00 35.00
C 34.32 36.46 36.13 36.05 37.00 37.00 Z"/>
</g>
<g fill="#F1F7F8" fill-opacity="0.02" stroke="None">
<path d="
M 18.00 48.00 
C 18.00 46.00 18.00 44.00 18.00 42.00
C 16.31 42.96 16.57 46.97 18.00 48.00 Z"/>
</g>
<g fill="#14362A" fill-opacity="0.75" stroke="None">
<path d="
M 182.00 57.00 
C 183.62 61.59 183.70 69.48 182.00 74.00
C 181.52 76.22 182.72 78.01 183.00 80.00
C 182.36 84.17 184.29 89.66 182.00 93.00
C 180.17 94.55 176.57 93.99 178.00 98.00
C 183.55 97.14 189.26 97.66 195.00 98.00
C 194.51 95.18 191.13 93.86 191.00 91.00
C 188.78 87.25 190.59 81.51 190.00 77.00
C 190.56 71.04 196.59 69.66 201.00 70.00
C 202.34 72.83 204.84 75.83 203.00 79.00
C 204.28 79.22 204.42 81.81 203.00 82.00
C 203.05 86.23 206.12 93.82 200.00 94.00
C 199.94 94.01 200.00 95.00 200.00 95.00
C 204.57 96.25 209.40 96.22 214.00 95.00
C 213.73 94.81 213.29 94.22 213.00 94.00
C 211.89 93.16 210.96 91.54 211.00 90.00
C 210.77 83.54 211.86 77.77 211.00 72.00
C 209.61 71.74 210.22 69.95 210.00 69.00
C 209.77 68.71 209.26 68.24 209.00 68.00
C 207.99 66.91 206.78 65.41 206.00 64.00
C 204.69 63.46 203.56 62.59 202.00 63.00
C 201.17 64.75 198.56 63.66 197.00 64.00
C 195.82 63.85 194.94 64.43 194.00 65.00
C 193.17 66.47 191.93 68.25 190.00 68.00
C 190.65 62.84 188.69 56.34 191.00 52.00
C 191.00 51.50 191.03 50.50 191.00 50.00
C 189.99 49.45 189.56 48.02 189.00 47.00
C 184.60 49.38 177.68 47.52 178.00 54.00
C 179.25 55.25 182.53 54.47 182.00 57.00 Z"/>
</g>
<g fill="#F1F7F8" fill-opacity="0.02" stroke="None">
<path d="
M 191.00 50.00 
C 191.21 48.58 190.29 47.44 189.00 47.00
C 189.56 48.02 189.99 49.45 191.00 50.00 Z"/>
</g>
<g fill="#F1F7F8" fill-opacity="0.02" stroke="None">
<path d="
M 78.00 49.00 
C 80.01 48.18 79.47 50.82 81.00 51.00
C 81.61 49.39 78.84 46.81 78.00 49.00 Z"/>
</g>
<g fill="#F1F7F8" fill-opacity="0.06" stroke="None">
<path d="
M 72.00 51.00 
C 73.57 51.30 75.61 50.75 76.00 49.00
C 74.83 50.04 72.73 49.65 72.00 51.00 Z"/>
</g>
<g fill="#6FB183" fill-opacity="0.72" stroke="None">
<path d="
M 72.00 51.00 
C 72.00 51.00 71.45 50.85 71.00 51.00
C 69.80 52.00 68.48 52.95 69.00 55.00
C 73.69 55.11 73.18 60.65 73.00 64.00
C 72.00 64.00 71.00 64.00 70.00 64.00
C 69.00 63.89 67.27 64.47 67.00 63.00
C 60.89 62.52 54.22 66.48 52.00 72.00
C 51.05 72.87 51.46 74.68 50.00 75.00
C 48.15 80.65 48.16 88.19 52.00 93.00
C 53.93 94.26 55.91 96.00 57.00 98.00
C 59.35 98.46 61.43 99.47 64.00 99.00
C 65.11 97.80 67.29 97.34 69.00 97.00
C 71.83 95.66 73.87 94.76 74.00 99.00
C 76.61 99.64 78.51 97.71 81.00 98.00
C 81.26 96.61 83.05 97.22 84.00 97.00
C 84.76 94.81 82.70 93.68 82.00 92.00
C 80.43 89.58 80.52 84.64 81.00 82.00
C 79.61 81.26 79.35 77.68 81.00 77.00
C 81.00 68.33 81.00 59.67 81.00 51.00
C 79.47 50.82 80.01 48.18 78.00 49.00
C 77.58 49.19 76.48 48.91 76.00 49.00
C 75.61 50.75 73.57 51.30 72.00 51.00
M 73.00 74.00 
C 73.00 77.00 73.00 80.00 73.00 83.00
C 73.59 85.27 72.15 86.90 72.00 89.00
C 72.27 90.28 71.23 91.72 70.00 92.00
C 60.48 94.05 56.07 83.97 58.00 76.00 C 58.46 67.69 71.90 64.75 73.00 74.00 Z"/>
</g>
<g fill="#F1F7F8" fill-opacity="0.05" stroke="None">
<path d="
M 69.00 55.00 
C 68.48 52.95 69.80 52.00 71.00 51.00
C 68.81 50.34 66.73 53.98 69.00 55.00 Z"/>
</g>
<g fill="#F1F7F8" fill-opacity="0.03" stroke="None">
<path d="
M 194.00 65.00 
C 192.71 65.17 192.25 66.70 191.00 67.00
C 191.00 62.00 191.00 57.00 191.00 52.00
C 188.69 56.34 190.65 62.84 190.00 68.00
C 191.93 68.25 193.17 66.47 194.00 65.00 Z"/>
</g>
<g fill="#F1F7F8" fill-opacity="0.02" stroke="None">
<path d="
M 15.00 57.00 
C 14.58 55.64 13.20 54.67 12.00 54.00
C 12.42 55.36 13.80 56.33 15.00 57.00 Z"/>
</g>
<g fill="#F1F7F8" fill-opacity="0.04" stroke="None">
<path d="
M 29.00 56.00 
C 26.78 56.48 24.99 55.28 23.00 55.00
C 24.00 56.65 27.72 58.05 29.00 56.00 Z"/>
</g>
<g fill="#F1F7F8" fill-opacity="0.02" stroke="None">
<path d="
M 30.00 56.00 
C 33.11 55.82 36.21 55.99 39.00 57.00
C 37.26 54.57 32.15 54.12 30.00 56.00 Z"/>
</g>
<g fill="#6FB183" fill-opacity="0.12" stroke="None">
<path d="
M 182.00 74.00 
C 183.70 69.48 183.62 61.59 182.00 57.00
C 182.00 62.67 182.00 68.33 182.00 74.00 Z"/>
</g>
<g fill="#F1F7F8" fill-opacity="0.02" stroke="None">
<path d="
M 70.00 64.00 
C 69.73 62.53 68.00 63.11 67.00 63.00
C 67.27 64.47 69.00 63.89 70.00 64.00 Z"/>
</g>
<g fill="#6FB183" fill-opacity="0.69" stroke="None">
<path d="
M 85.00 80.00 
C 84.77 83.17 85.05 86.12 86.00 89.00
C 86.23 91.47 87.69 93.86 90.00 95.00
C 91.28 96.16 93.14 96.61 94.00 98.00
C 94.00 98.00 94.51 98.06 95.00 98.00
C 96.00 98.11 97.73 97.53 98.00 99.00
C 100.34 98.80 103.03 99.59 105.00 98.00
C 105.55 96.99 106.98 96.56 108.00 96.00
C 110.01 95.30 110.28 92.84 112.00 92.00
C 113.41 90.49 113.00 88.55 112.00 87.00
C 108.86 88.47 106.26 90.72 103.00 92.00
C 101.72 91.72 99.50 92.76 99.00 91.00
C 94.83 89.19 91.28 82.76 94.00 78.00
C 95.53 78.93 97.17 79.23 99.00 79.00
C 101.28 77.46 106.79 77.28 109.00 79.00
C 110.33 79.00 111.67 79.00 113.00 79.00
C 113.30 75.10 113.70 72.41 112.00 69.00
C 110.07 67.74 108.09 66.00 107.00 64.00
C 106.55 63.85 105.50 63.97 105.00 64.00
C 103.43 63.61 100.78 64.94 100.00 63.00
C 91.66 63.21 84.10 71.52 85.00 80.00
M 104.00 73.00 
C 104.87 76.15 95.02 75.58 93.00 74.00
C 94.28 68.92 101.09 65.76 105.00 70.00
C 104.43 70.94 103.85 71.82 104.00 73.00 Z"/>
</g>
<g fill="#F1F7F8" fill-opacity="0.07" stroke="None">
<path d="
M 105.00 64.00 
C 104.22 62.06 101.57 63.39 100.00 63.00
C 100.78 64.94 103.43 63.61 105.00 64.00 Z"/>
</g>
<g fill="#F1F7F8" fill-opacity="0.02" stroke="None">
<path d="
M 124.00 64.00 
C 125.28 63.47 125.86 64.97 127.00 65.00
C 126.92 63.75 124.48 62.12 124.00 64.00 Z"/>
</g>
<g fill="#6FB183" fill-opacity="0.71" stroke="None">
<path d="
M 127.00 65.00 
C 125.86 64.97 125.28 63.47 124.00 64.00
C 123.00 64.00 122.00 64.00 121.00 64.00
C 120.56 65.29 119.42 66.21 118.00 66.00
C 118.00 66.00 117.35 65.77 117.00 66.00
C 116.07 67.14 115.92 68.55 116.00 70.00
C 121.07 72.21 118.30 78.70 119.00 83.00
C 120.39 83.74 120.65 87.32 119.00 88.00
C 119.76 89.66 117.70 92.18 119.00 93.00
C 117.17 94.55 113.57 93.99 115.00 98.00
C 120.67 98.00 126.33 98.00 132.00 98.00
C 132.41 96.07 131.29 93.61 129.00 94.00
C 125.22 89.31 126.84 79.40 128.00 74.00
C 131.75 66.35 141.54 71.68 140.00 79.00 C 141.53 86.51 138.68 93.01 135.00 98.00
C 140.67 98.00 146.33 98.00 152.00 98.00
C 153.72 92.95 145.98 94.40 148.00 89.00
C 146.53 87.67 146.29 83.26 148.00 82.00
C 148.00 80.00 148.00 78.00 148.00 76.00
C 146.72 75.78 146.58 73.19 148.00 73.00
C 147.57 61.59 133.44 60.79 127.00 68.00
C 127.00 67.00 127.00 66.00 127.00 65.00 Z"/>
</g>
<g fill="#F1F7F8" fill-opacity="0.05" stroke="None">
<path d="
M 161.00 64.00 
C 162.33 64.00 163.67 64.00 165.00 64.00
C 165.22 63.87 165.00 63.00 165.00 63.00
C 163.75 63.28 161.53 62.40 161.00 64.00 Z"/>
</g>
<g fill="#6FB183" fill-opacity="0.09" stroke="None">
<path d="
M 165.00 64.00 
C 167.00 64.00 169.00 64.00 171.00 64.00
C 169.93 61.94 166.88 63.47 165.00 63.00
C 165.00 63.00 165.22 63.87 165.00 64.00 Z"/>
</g>
<g fill="#F1F7F8" fill-opacity="0.04" stroke="None">
<path d="
M 197.00 64.00 
C 198.56 63.66 201.17 64.75 202.00 63.00
C 200.44 63.34 197.83 62.25 197.00 64.00 Z"/>
</g>
<g fill="#6FB183" fill-opacity="0.07" stroke="None">
<path d="
M 229.00 64.00 
C 230.00 64.00 231.00 64.00 232.00 64.00
C 232.25 63.73 232.00 63.00 232.00 63.00
C 231.05 63.22 229.26 62.61 229.00 64.00 Z"/>
</g>
<g fill="#F1F7F8" fill-opacity="0.09" stroke="None">
<path d="
M 232.00 64.00 
C 234.33 64.00 236.67 64.00 239.00 64.00
C 237.62 61.86 234.19 63.52 232.00 63.00
C 232.00 63.00 232.25 63.73 232.00 64.00 Z"/>
</g>
<g fill="#F1F7F8" fill-opacity="0.05" stroke="None">
<path d="
M 271.00 64.00 
C 274.57 63.49 277.64 64.61 281.00 65.00
C 278.75 63.05 273.53 61.89 271.00 64.00 Z"/>
</g>
<g fill="#F1F7F8" fill-opacity="0.01" stroke="None">
<path d="
M 112.00 69.00 
C 110.91 67.00 108.93 65.26 107.00 64.00
C 108.09 66.00 110.07 67.74 112.00 69.00 Z"/>
</g>
<g fill="#F1F7F8" fill-opacity="0.02" stroke="None">
<path d="
M 118.00 66.00 
C 119.42 66.21 120.56 65.29 121.00 64.00
C 119.98 64.56 118.55 64.99 118.00 66.00 Z"/>
</g>
<g fill="#6FB183" fill-opacity="0.09" stroke="None">
<path d="
M 156.00 68.00 
C 157.73 66.69 159.61 65.38 161.00 64.00
C 158.65 63.88 157.19 66.29 156.00 68.00 Z"/>
</g>
<g fill="#14362A" fill-opacity="0.73" stroke="None">
<path d="
M 156.00 68.00 
C 152.35 70.35 155.35 74.95 154.00 78.00
C 157.77 75.75 155.45 81.00 158.00 82.00
C 158.97 80.72 162.13 82.90 163.00 84.00
C 164.28 83.73 165.72 84.77 166.00 86.00
C 167.68 86.75 169.04 88.43 170.00 90.00
C 170.83 92.81 167.71 93.63 166.00 95.00
C 163.92 94.92 160.72 95.69 160.00 93.00
C 159.83 92.67 159.22 92.26 159.00 92.00
C 158.21 93.78 156.88 89.95 157.00 89.00
C 157.61 87.39 154.84 84.81 154.00 87.00
C 153.44 89.52 155.19 93.30 153.00 95.00
C 153.76 96.89 155.84 98.53 158.00 98.00
C 159.28 98.28 161.50 97.24 162.00 99.00
C 163.35 98.22 164.72 97.70 166.00 99.00
C 166.26 97.61 168.05 98.22 169.00 98.00
C 169.93 96.89 171.17 97.93 172.00 96.00
C 172.41 95.17 172.97 94.13 174.00 94.00
C 176.43 93.18 177.06 91.05 176.00 89.00
C 174.25 88.17 175.34 85.56 175.00 84.00
C 174.84 80.33 170.76 79.06 168.00 78.00
C 166.72 78.27 165.28 77.23 165.00 76.00
C 164.57 74.05 162.33 73.99 161.00 73.00
C 160.77 71.10 161.57 69.05 163.00 68.00
C 163.47 66.66 166.58 66.43 167.00 68.00
C 167.00 68.00 167.71 67.75 168.00 68.00
C 169.01 69.09 170.22 70.59 171.00 72.00
C 171.40 74.55 172.77 72.91 175.00 74.00
C 174.24 71.21 176.28 68.23 175.00 66.00
C 174.13 65.05 172.32 65.46 172.00 64.00
C 172.00 64.00 171.50 64.00 171.00 64.00
C 169.00 64.00 167.00 64.00 165.00 64.00
C 163.67 64.00 162.33 64.00 161.00 64.00
C 159.61 65.38 157.73 66.69 156.00 68.00 Z"/>
</g>
<g fill="#F1F7F8" fill-opacity="0.05" stroke="None">
<path d="
M 175.00 66.00 
C 174.72 64.77 173.28 63.73 172.00 64.00
C 172.32 65.46 174.13 65.05 175.00 66.00 Z"/>
</g>
<g fill="#F1F7F8" fill-opacity="0.05" stroke="None">
<path d="
M 209.00 68.00 
C 209.25 66.07 207.47 64.83 206.00 64.00
C 206.78 65.41 207.99 66.91 209.00 68.00 Z"/>
</g>
<g fill="#14362A" fill-opacity="0.73" stroke="None">
<path d="
M 218.00 73.00 
C 218.27 74.28 217.23 75.72 216.00 76.00
C 215.16 83.75 217.05 90.91 222.00 95.00
C 223.28 94.73 224.72 95.77 225.00 97.00
C 225.79 98.16 227.50 97.15 229.00 98.00
C 232.00 98.00 235.00 98.00 238.00 98.00
C 244.20 97.30 249.33 91.18 250.00 85.00
C 250.47 83.12 248.94 80.07 251.00 79.00
C 250.79 75.48 250.19 73.16 248.00 70.00
C 246.45 68.45 243.83 68.17 243.00 66.00
C 242.61 64.25 240.57 63.70 239.00 64.00
C 236.67 64.00 234.33 64.00 232.00 64.00
C 231.00 64.00 230.00 64.00 229.00 64.00
C 223.65 64.11 219.59 69.09 218.00 73.00
M 234.00 68.00 
C 235.54 67.63 236.40 69.43 238.00 69.00
C 239.29 69.44 240.21 70.58 240.00 72.00
C 240.57 72.94 241.15 73.82 241.00 75.00
C 242.60 75.53 241.72 77.75 242.00 79.00
C 243.01 80.34 241.35 83.76 242.00 86.00
C 241.89 87.00 242.47 88.73 241.00 89.00
C 241.64 91.43 238.67 91.46 238.00 93.00
C 239.85 93.70 236.60 94.51 236.00 95.00
C 234.72 94.72 232.50 95.76 232.00 94.00
C 231.50 94.00 231.00 94.00 231.00 94.00
C 228.58 92.70 226.96 90.43 226.00 88.00
C 226.41 86.44 225.54 85.31 225.00 84.00
C 223.66 83.53 223.43 80.42 225.00 80.00
C 225.00 79.50 225.00 79.00 225.00 79.00
C 223.72 78.78 223.58 76.19 225.00 76.00
C 225.89 73.02 227.54 68.52 231.00 68.00
C 231.22 66.72 233.81 66.58 234.00 68.00 Z"/>
</g>
<g fill="#6FB183" fill-opacity="0.15" stroke="None">
<path d="
M 258.00 65.00 
C 259.00 64.89 260.73 65.47 261.00 64.00
C 260.05 64.22 258.26 63.61 258.00 65.00 Z"/>
</g>
<g fill="#14362A" fill-opacity="0.77" stroke="None">
<path d="
M 258.00 65.00 
C 255.39 65.60 251.05 66.13 252.00 70.00
C 253.82 69.60 254.54 71.45 256.00 72.00
C 258.21 75.42 256.42 80.82 257.00 85.00
C 257.00 86.00 257.00 87.00 257.00 88.00
C 256.41 90.84 258.22 94.98 256.00 97.00
C 256.00 97.00 256.00 97.50 256.00 98.00
C 257.57 100.94 257.71 107.13 256.00 110.00
C 255.45 112.81 250.62 111.29 252.00 115.00
C 257.67 115.00 263.33 115.00 269.00 115.00
C 269.48 113.84 270.12 113.06 269.00 112.00
C 268.26 112.18 267.09 111.95 267.00 111.00
C 267.00 111.00 266.46 111.14 266.00 111.00
C 264.40 110.47 265.28 108.25 265.00 107.00
C 264.72 106.77 264.07 106.35 264.00 106.00
C 264.00 103.67 264.00 101.33 264.00 99.00
C 264.27 97.53 266.00 98.11 267.00 98.00
C 269.00 98.00 271.00 98.00 273.00 98.00
C 273.47 96.27 275.05 98.69 276.00 97.00
C 277.28 97.53 277.86 96.03 279.00 96.00
C 283.88 94.03 287.25 87.76 288.00 83.00
C 288.00 81.00 288.00 79.00 288.00 77.00
C 287.45 72.45 285.18 67.93 281.00 65.00
C 277.64 64.61 274.57 63.49 271.00 64.00
C 268.23 63.22 267.09 65.96 265.00 67.00
C 264.59 67.83 264.03 68.87 263.00 69.00
C 263.00 67.33 263.00 65.67 263.00 64.00
C 262.56 63.84 261.50 64.00 261.00 64.00
C 260.73 65.47 259.00 64.89 258.00 65.00
M 275.00 72.00 
C 275.65 70.33 277.73 73.10 278.00 74.00
C 278.25 74.27 278.00 75.00 278.00 75.00
C 279.43 76.05 280.23 78.10 280.00 80.00
C 280.06 82.12 280.23 84.23 279.00 86.00
C 280.76 86.66 279.11 89.47 278.00 90.00
C 278.88 92.65 275.34 91.13 275.00 93.00
C 276.68 94.08 272.23 95.37 271.00 95.00
C 269.17 94.73 266.70 93.98 266.00 92.00
C 265.51 89.65 263.55 87.11 265.00 84.00
C 263.43 81.06 263.29 74.87 265.00 72.00
C 268.50 71.09 271.78 69.09 275.00 72.00 Z"/>
</g>
<g fill="#F1F7F8" fill-opacity="0.17" stroke="None">
<path d="
M 265.00 67.00 
C 263.17 66.85 264.67 64.24 263.00 64.00
C 263.00 65.67 263.00 67.33 263.00 69.00
C 264.03 68.87 264.59 67.83 265.00 67.00 Z"/>
</g>
<g fill="#F1F7F8" fill-opacity="0.05" stroke="None">
<path d="
M 116.00 70.00 
C 115.92 68.55 116.07 67.14 117.00 66.00
C 115.28 66.21 114.07 69.29 116.00 70.00 Z"/>
</g>
<g fill="#F1F7F8" fill-opacity="0.05" stroke="None">
<path d="
M 248.00 70.00 
C 247.24 67.79 244.85 66.97 243.00 66.00
C 243.83 68.17 246.45 68.45 248.00 70.00 Z"/>
</g>
<g fill="#F1F7F8" fill-opacity="0.02" stroke="None">
<path d="
M 163.00 68.00 
C 164.33 68.00 165.67 68.00 167.00 68.00
C 166.58 66.43 163.47 66.66 163.00 68.00 Z"/>
</g>
<g fill="#F1F7F8" fill-opacity="0.02" stroke="None">
<path d="
M 231.00 68.00 
C 232.00 68.00 233.00 68.00 234.00 68.00
C 233.81 66.58 231.22 66.72 231.00 68.00 Z"/>
</g>
<g fill="#000000" fill-opacity="0.00" stroke="None">
<path d="
M 70.00 92.00 
C 70.95 91.13 70.54 89.32 72.00 89.00
C 72.15 86.90 73.59 85.27 73.00 83.00
C 71.48 81.04 71.28 75.89 73.00 74.00
C 71.90 64.75 58.46 67.69 58.00 76.00 C 56.07 83.97 60.48 94.05 70.00 92.00 Z"/>
</g>
<g fill="#000000" fill-opacity="0.00" stroke="None">
<path d="
M 93.00 74.00 
C 96.50 73.38 101.32 75.27 104.00 73.00
C 103.85 71.82 104.43 70.94 105.00 70.00
C 101.09 65.76 94.28 68.92 93.00 74.00 Z"/>
</g>
<g fill="#F1F7F8" fill-opacity="0.01" stroke="None">
<path d="
M 171.00 72.00 
C 170.22 70.59 169.01 69.09 168.00 68.00
C 167.75 69.93 169.53 71.17 171.00 72.00 Z"/>
</g>
<g fill="#000000" fill-opacity="0.00" stroke="None">
<path d="
M 225.00 76.00 
C 225.00 77.00 225.00 78.00 225.00 79.00
C 225.00 79.00 225.00 79.50 225.00 80.00
C 225.00 81.33 225.00 82.67 225.00 84.00
C 225.54 85.31 226.41 86.44 226.00 88.00
C 228.12 89.43 229.32 92.04 231.00 94.00
C 231.00 94.00 231.50 94.00 232.00 94.00
C 233.33 94.00 234.67 94.00 236.00 94.00
C 236.80 93.87 237.11 92.91 238.00 93.00
C 238.67 91.46 241.64 91.43 241.00 89.00
C 241.11 88.00 240.53 86.27 242.00 86.00
C 241.35 83.76 243.01 80.34 242.00 79.00
C 240.40 78.47 241.28 76.25 241.00 75.00
C 241.15 73.82 240.57 72.94 240.00 72.00
C 238.99 71.45 238.56 70.02 238.00 69.00
C 236.40 69.43 235.54 67.63 234.00 68.00
C 233.00 68.00 232.00 68.00 231.00 68.00
C 227.54 68.52 225.89 73.02 225.00 76.00 Z"/>
</g>
<g fill="#F1F7F8" fill-opacity="0.02" stroke="None">
<path d="
M 211.00 72.00 
C 210.78 71.05 211.39 69.26 210.00 69.00
C 210.22 69.95 209.61 71.74 211.00 72.00 Z"/>
</g>
<g fill="#6FB183" fill-opacity="0.08" stroke="None">
<path d="
M 240.00 72.00 
C 240.21 70.58 239.29 69.44 238.00 69.00
C 238.56 70.02 238.99 71.45 240.00 72.00 Z"/>
</g>
<g fill="#000000" fill-opacity="0.00" stroke="None">
<path d="
M 265.00 72.00 
C 265.00 76.00 265.00 80.00 265.00 84.00
C 263.55 87.11 265.51 89.65 266.00 92.00
C 267.68 92.71 269.08 94.01 271.00 94.00
C 272.56 94.41 273.69 93.54 275.00 93.00
C 275.34 91.13 278.88 92.65 278.00 90.00
C 277.63 88.46 279.43 87.60 279.00 86.00
C 280.23 84.23 280.06 82.12 280.00 80.00
C 278.80 78.89 278.34 76.71 278.00 75.00
C 278.00 75.00 278.25 74.27 278.00 74.00
C 276.75 73.70 276.29 72.17 275.00 72.00
C 271.78 69.09 268.50 71.09 265.00 72.00 Z"/>
</g>
<g fill="#6FB183" fill-opacity="0.07" stroke="None">
<path d="
M 275.00 72.00 
C 276.29 72.17 276.75 73.70 278.00 74.00
C 277.73 73.10 275.65 70.33 275.00 72.00 Z"/>
</g>
<g fill="#F1F7F8" fill-opacity="0.02" stroke="None">
<path d="
M 50.00 75.00 
C 51.46 74.68 51.05 72.87 52.00 72.00
C 50.77 72.28 49.73 73.72 50.00 75.00 Z"/>
</g>
<g fill="#6FB183" fill-opacity="0.12" stroke="None">
<path d="
M 256.00 85.00 
C 256.27 84.75 257.00 85.00 257.00 85.00
C 256.42 80.82 258.21 75.42 256.00 72.00
C 256.00 76.33 256.00 80.67 256.00 85.00 Z"/>
</g>
<g fill="#F1F7F8" fill-opacity="0.02" stroke="None">
<path d="
M 265.00 84.00 
C 265.00 80.00 265.00 76.00 265.00 72.00
C 263.29 74.87 263.43 81.06 265.00 84.00 Z"/>
</g>
<g fill="#F1F7F8" fill-opacity="0.05" stroke="None">
<path d="
M 93.00 74.00 
C 95.02 75.58 104.87 76.15 104.00 73.00
C 101.32 75.27 96.50 73.38 93.00 74.00 Z"/>
</g>
<g fill="#F1F7F8" fill-opacity="0.07" stroke="None">
<path d="
M 148.00 76.00 
C 148.00 75.00 148.00 74.00 148.00 73.00
C 146.58 73.19 146.72 75.78 148.00 76.00 Z"/>
</g>
<g fill="#F1F7F8" fill-opacity="0.05" stroke="None">
<path d="
M 216.00 76.00 
C 217.23 75.72 218.27 74.28 218.00 73.00
C 216.54 73.32 216.95 75.13 216.00 76.00 Z"/>
</g>
<g fill="#F1F7F8" fill-opacity="0.00" stroke="None">
<path d="
M 73.00 83.00 
C 73.00 80.00 73.00 77.00 73.00 74.00
C 71.28 75.89 71.48 81.04 73.00 83.00 Z"/>
</g>
<g fill="#F1F7F8" fill-opacity="0.00" stroke="None">
<path d="
M 129.00 94.00 
C 126.79 87.83 128.58 80.60 128.00 74.00
C 126.84 79.40 125.22 89.31 129.00 94.00 Z"/>
</g>
<g fill="#F1F7F8" fill-opacity="0.03" stroke="None">
<path d="
M 242.00 79.00 
C 241.72 77.75 242.60 75.53 241.00 75.00
C 241.28 76.25 240.40 78.47 242.00 79.00 Z"/>
</g>
<g fill="#F1F7F8" fill-opacity="0.03" stroke="None">
<path d="
M 280.00 80.00 
C 280.23 78.10 279.43 76.05 278.00 75.00
C 278.34 76.71 278.80 78.89 280.00 80.00 Z"/>
</g>
<g fill="#F1F7F8" fill-opacity="0.04" stroke="None">
<path d="
M 2.00 84.00 
C 2.00 81.33 2.00 78.67 2.00 76.00
C 0.28 77.57 0.50 82.36 2.00 84.00 Z"/>
</g>
<g fill="#6FB183" fill-opacity="0.19" stroke="None">
<path d="
M 168.00 78.00 
C 167.72 76.77 166.28 75.73 165.00 76.00
C 165.28 77.23 166.72 78.27 168.00 78.00 Z"/>
</g>
<g fill="#6FB183" fill-opacity="0.09" stroke="None">
<path d="
M 225.00 79.00 
C 225.00 78.00 225.00 77.00 225.00 76.00
C 223.58 76.19 223.72 78.78 225.00 79.00 Z"/>
</g>
<g fill="#F1F7F8" fill-opacity="0.05" stroke="None">
<path d="
M 81.00 82.00 
C 81.00 80.33 81.00 78.67 81.00 77.00
C 79.35 77.68 79.61 81.26 81.00 82.00 Z"/>
</g>
<g fill="#F1F7F8" fill-opacity="0.02" stroke="None">
<path d="
M 191.00 91.00 
C 190.41 86.49 192.22 80.75 190.00 77.00
C 190.59 81.51 188.78 87.25 191.00 91.00 Z"/>
</g>
<g fill="#F1F7F8" fill-opacity="0.00" stroke="None">
<path d="
M 288.00 83.00 
C 289.69 82.04 289.43 78.03 288.00 77.00
C 288.00 79.00 288.00 81.00 288.00 83.00 Z"/>
</g>
<g fill="#F1F7F8" fill-opacity="0.10" stroke="None">
<path d="
M 99.00 79.00 
C 102.33 79.00 105.67 79.00 109.00 79.00
C 106.79 77.28 101.28 77.46 99.00 79.00 Z"/>
</g>
<g fill="#F1F7F8" fill-opacity="0.01" stroke="None">
<path d="
M 203.00 82.00 
C 204.42 81.81 204.28 79.22 203.00 79.00
C 203.00 80.00 203.00 81.00 203.00 82.00 Z"/>
</g>
<g fill="#6FB183" fill-opacity="0.24" stroke="None">
<path d="
M 250.00 85.00 
C 252.06 83.93 250.53 80.88 251.00 79.00
C 248.94 80.07 250.47 83.12 250.00 85.00 Z"/>
</g>
<g fill="#F1F7F8" fill-opacity="0.01" stroke="None">
<path d="
M 86.00 89.00 
C 85.05 86.12 84.77 83.17 85.00 80.00
C 83.39 81.94 82.97 87.69 86.00 89.00 Z"/>
</g>
<g fill="#6FB183" fill-opacity="0.12" stroke="None">
<path d="
M 182.00 93.00 
C 184.29 89.66 182.36 84.17 183.00 80.00
C 180.71 83.34 182.64 88.83 182.00 93.00 Z"/>
</g>
<g fill="#6FB183" fill-opacity="0.13" stroke="None">
<path d="
M 225.00 84.00 
C 225.00 82.67 225.00 81.33 225.00 80.00
C 223.43 80.42 223.66 83.53 225.00 84.00 Z"/>
</g>
<g fill="#6FB183" fill-opacity="0.13" stroke="None">
<path d="
M 158.00 82.00 
C 159.36 82.66 160.66 83.27 162.00 84.00
C 162.44 84.16 163.00 84.00 163.00 84.00
C 162.13 82.90 158.97 80.72 158.00 82.00 Z"/>
</g>
<g fill="#F1F7F8" fill-opacity="0.07" stroke="None">
<path d="
M 148.00 89.00 
C 148.00 86.67 148.00 84.33 148.00 82.00
C 146.29 83.26 146.53 87.67 148.00 89.00 Z"/>
</g>
<g fill="#F1F7F8" fill-opacity="0.04" stroke="None">
<path d="
M 13.00 87.00 
C 13.04 85.46 12.11 83.84 11.00 83.00
C 10.96 84.54 11.89 86.16 13.00 87.00 Z"/>
</g>
<g fill="#F1F7F8" fill-opacity="0.15" stroke="None">
<path d="
M 119.00 88.00 
C 120.65 87.32 120.39 83.74 119.00 83.00
C 119.00 84.67 119.00 86.33 119.00 88.00 Z"/>
</g>
<g fill="#F1F7F8" fill-opacity="0.06" stroke="None">
<path d="
M 166.00 86.00 
C 165.72 84.77 164.28 83.73 163.00 84.00
C 163.00 84.00 162.44 84.16 162.00 84.00
C 162.66 85.35 164.59 85.85 166.00 86.00 Z"/>
</g>
<g fill="#6FB183" fill-opacity="0.27" stroke="None">
<path d="
M 176.00 89.00 
C 175.66 87.44 176.75 84.83 175.00 84.00
C 175.34 85.56 174.25 88.17 176.00 89.00 Z"/>
</g>
<g fill="#F1F7F8" fill-opacity="0.11" stroke="None">
<path d="
M 256.00 88.00 
C 256.27 88.25 257.00 88.00 257.00 88.00
C 257.00 87.00 257.00 86.00 257.00 85.00
C 257.00 85.00 256.27 84.75 256.00 85.00
C 256.00 86.00 256.00 87.00 256.00 88.00 Z"/>
</g>
<g fill="#F1F7F8" fill-opacity="0.02" stroke="None">
<path d="
M 241.00 89.00 
C 242.47 88.73 241.89 87.00 242.00 86.00
C 240.53 86.27 241.11 88.00 241.00 89.00 Z"/>
</g>
<g fill="#F1F7F8" fill-opacity="0.03" stroke="None">
<path d="
M 278.00 90.00 
C 279.11 89.47 280.76 86.66 279.00 86.00
C 279.43 87.60 277.63 88.46 278.00 90.00 Z"/>
</g>
<g fill="#F1F7F8" fill-opacity="0.01" stroke="None">
<path d="
M 112.00 92.00 
C 114.54 91.48 114.60 87.55 112.00 87.00
C 113.00 88.55 113.41 90.49 112.00 92.00 Z"/>
</g>
<g fill="#6FB183" fill-opacity="0.05" stroke="None">
<path d="
M 153.00 95.00 
C 155.19 93.30 153.44 89.52 154.00 87.00
C 151.81 88.70 153.56 92.48 153.00 95.00 Z"/>
</g>
<g fill="#F1F7F8" fill-opacity="0.02" stroke="None">
<path d="
M 20.00 94.00 
C 18.22 91.64 15.29 90.11 13.00 88.00
C 14.54 90.65 17.18 92.86 20.00 94.00 Z"/>
</g>
<g fill="#F1F7F8" fill-opacity="0.02" stroke="None">
<path d="
M 231.00 94.00 
C 229.32 92.04 228.12 89.43 226.00 88.00
C 226.96 90.43 228.58 92.70 231.00 94.00 Z"/>
</g>
<g fill="#6FB183" fill-opacity="0.10" stroke="None">
<path d="
M 256.00 97.00 
C 258.22 94.98 256.41 90.84 257.00 88.00
C 257.00 88.00 256.27 88.25 256.00 88.00
C 256.00 91.00 256.00 94.00 256.00 97.00 Z"/>
</g>
<g fill="#F1F7F8" fill-opacity="0.02" stroke="None">
<path d="
M 70.00 92.00 
C 71.23 91.72 72.27 90.28 72.00 89.00
C 70.54 89.32 70.95 91.13 70.00 92.00 Z"/>
</g>
<g fill="#6FB183" fill-opacity="0.16" stroke="None">
<path d="
M 159.00 92.00 
C 158.44 90.98 158.01 89.55 157.00 89.00
C 156.88 89.95 158.21 93.78 159.00 92.00 Z"/>
</g>
<g fill="#F1F7F8" fill-opacity="0.08" stroke="None">
<path d="
M 166.00 94.00 
C 165.77 94.15 166.00 95.00 166.00 95.00
C 167.71 93.63 170.83 92.81 170.00 90.00
C 168.46 90.96 168.14 93.41 166.00 94.00 Z"/>
</g>
<g fill="#F1F7F8" fill-opacity="0.01" stroke="None">
<path d="
M 213.00 94.00 
C 212.90 92.53 213.53 89.37 211.00 90.00
C 210.96 91.54 211.89 93.16 213.00 94.00 Z"/>
</g>
<g fill="#F1F7F8" fill-opacity="0.02" stroke="None">
<path d="
M 103.00 92.00 
C 102.50 90.24 100.28 91.28 99.00 91.00
C 99.50 92.76 101.72 91.72 103.00 92.00 Z"/>
</g>
<g fill="#F1F7F8" fill-opacity="0.02" stroke="None">
<path d="
M 8.00 95.00 
C 7.58 93.64 6.20 92.67 5.00 92.00
C 5.42 93.36 6.80 94.33 8.00 95.00 Z"/>
</g>
<g fill="#F1F7F8" fill-opacity="0.03" stroke="None">
<path d="
M 33.00 94.00 
C 34.42 94.21 35.56 93.29 36.00 92.00
C 34.98 92.56 33.55 92.99 33.00 94.00 Z"/>
</g>
<g fill="#F1F7F8" fill-opacity="0.05" stroke="None">
<path d="
M 81.00 98.00 
C 84.20 98.83 85.70 95.70 85.00 93.00
C 83.82 93.15 82.94 92.57 82.00 92.00
C 82.70 93.68 84.76 94.81 84.00 97.00
C 83.05 97.22 81.26 96.61 81.00 98.00 Z"/>
</g>
<g fill="#F1F7F8" fill-opacity="0.09" stroke="None">
<path d="
M 271.00 95.00 
C 270.97 95.00 271.00 94.00 271.00 94.00
C 269.08 94.01 267.68 92.71 266.00 92.00
C 266.70 93.98 269.17 94.73 271.00 95.00 Z"/>
</g>
<g fill="#F1F7F8" fill-opacity="0.03" stroke="None">
<path d="
M 57.00 98.00 
C 55.91 96.00 53.93 94.26 52.00 93.00
C 53.09 95.00 55.07 96.74 57.00 98.00 Z"/>
</g>
<g fill="#6FB183" fill-opacity="0.05" stroke="None">
<path d="
M 166.00 95.00 
C 166.00 95.00 165.77 94.15 166.00 94.00
C 163.96 93.89 161.67 94.42 160.00 93.00
C 160.72 95.69 163.92 94.92 166.00 95.00 Z"/>
</g>
<g fill="#6FB183" fill-opacity="0.14" stroke="None">
<path d="
M 236.00 94.00 
C 235.80 94.40 236.00 95.00 236.00 95.00
C 236.60 94.51 239.85 93.70 238.00 93.00
C 237.11 92.91 236.80 93.87 236.00 94.00 Z"/>
</g>
<g fill="#6FB183" fill-opacity="0.16" stroke="None">
<path d="
M 271.00 94.00 
C 271.00 94.00 270.97 95.00 271.00 95.00
C 272.23 95.37 276.68 94.08 275.00 93.00
C 273.69 93.54 272.56 94.41 271.00 94.00 Z"/>
</g>
<g fill="#F1F7F8" fill-opacity="0.03" stroke="None">
<path d="
M 29.00 95.00 
C 29.95 94.78 31.74 95.39 32.00 94.00
C 31.05 94.22 29.26 93.61 29.00 95.00 Z"/>
</g>
<g fill="#F1F7F8" fill-opacity="0.06" stroke="None">
<path d="
M 172.00 96.00 
C 172.58 97.96 174.52 94.97 174.00 94.00
C 172.97 94.13 172.41 95.17 172.00 96.00 Z"/>
</g>
<g fill="#F1F7F8" fill-opacity="0.03" stroke="None">
<path d="
M 200.00 98.00 
C 199.42 97.16 198.29 95.39 200.00 95.00
C 200.00 95.00 199.94 94.01 200.00 94.00
C 197.69 94.41 197.62 97.57 200.00 98.00 Z"/>
</g>
<g fill="#F1F7F8" fill-opacity="0.09" stroke="None">
<path d="
M 236.00 95.00 
C 236.00 95.00 235.80 94.40 236.00 94.00
C 234.67 94.00 233.33 94.00 232.00 94.00
C 232.50 95.76 234.72 94.72 236.00 95.00 Z"/>
</g>
<g fill="#F1F7F8" fill-opacity="0.05" stroke="None">
<path d="
M 94.00 98.00 
C 93.14 96.61 91.28 96.16 90.00 95.00
C 90.63 96.46 92.23 98.21 94.00 98.00 Z"/>
</g>
<g fill="#14362A" fill-opacity="0.52" stroke="None">
<path d="
M 200.00 98.00 
C 205.60 97.80 211.22 98.41 216.00 97.00
C 215.87 95.97 214.83 95.41 214.00 95.00
C 209.40 96.22 204.57 96.25 200.00 95.00
C 198.29 95.39 199.42 97.16 200.00 98.00 Z"/>
</g>
<g fill="#6FB183" fill-opacity="0.08" stroke="None">
<path d="
M 225.00 97.00 
C 224.72 95.77 223.28 94.73 222.00 95.00
C 222.32 96.46 224.13 96.05 225.00 97.00 Z"/>
</g>
<g fill="#F1F7F8" fill-opacity="0.04" stroke="None">
<path d="
M 105.00 98.00 
C 106.42 98.21 107.56 97.29 108.00 96.00
C 106.98 96.56 105.55 96.99 105.00 98.00 Z"/>
</g>
<g fill="#F1F7F8" fill-opacity="0.04" stroke="None">
<path d="
M 276.00 97.00 
C 276.56 98.97 278.76 97.28 279.00 96.00
C 277.86 96.03 277.28 97.53 276.00 97.00 Z"/>
</g>
<g fill="#F1F7F8" fill-opacity="0.04" stroke="None">
<path d="
M 64.00 99.00 
C 65.90 99.23 67.95 98.43 69.00 97.00
C 67.29 97.34 65.11 97.80 64.00 99.00 Z"/>
</g>
<g fill="#F1F7F8" fill-opacity="0.02" stroke="None">
<path d="
M 98.00 99.00 
C 97.73 97.53 96.00 98.11 95.00 98.00
C 95.27 99.47 97.00 98.89 98.00 99.00 Z"/>
</g>
<g fill="#F1F7F8" fill-opacity="0.01" stroke="None">
<path d="
M 162.00 99.00 
C 161.50 97.24 159.28 98.28 158.00 98.00
C 158.50 99.76 160.72 98.72 162.00 99.00 Z"/>
</g>
<g fill="#F1F7F8" fill-opacity="0.01" stroke="None">
<path d="
M 166.00 99.00 
C 166.95 98.78 168.74 99.39 169.00 98.00
C 168.05 98.22 166.26 97.61 166.00 99.00 Z"/>
</g>
<g fill="#F1F7F8" fill-opacity="0.01" stroke="None">
<path d="
M 238.00 98.00 
C 235.00 98.00 232.00 98.00 229.00 98.00
C 230.89 99.72 236.04 99.52 238.00 98.00 Z"/>
</g>
<g fill="#6FB183" fill-opacity="0.10" stroke="None">
<path d="
M 256.00 110.00 
C 257.71 107.13 257.57 100.94 256.00 98.00
C 256.00 102.00 256.00 106.00 256.00 110.00 Z"/>
</g>
<g fill="#F1F7F8" fill-opacity="0.01" stroke="None">
<path d="
M 273.00 98.00 
C 271.00 98.00 269.00 98.00 267.00 98.00
C 267.52 99.79 274.65 99.37 273.00 98.00 Z"/>
</g>
<g fill="#F1F7F8" fill-opacity="0.02" stroke="None">
<path d="
M 264.00 106.00 
C 265.71 104.74 265.47 100.33 264.00 99.00
C 264.00 101.33 264.00 103.67 264.00 106.00 Z"/>
</g>
<g fill="#F1F7F8" fill-opacity="0.01" stroke="None">
<path d="
M 266.00 111.00 
C 265.72 109.75 266.60 107.53 265.00 107.00
C 265.28 108.25 264.40 110.47 266.00 111.00 Z"/>
</g>
<g fill="#F1F7F8" fill-opacity="0.04" stroke="None">
<path d="
M 269.00 112.00 
C 270.96 111.14 267.72 110.72 267.00 111.00
C 267.09 111.95 268.26 112.18 269.00 112.00 Z"/>
</g>
<g fill="#F1F7F8" fill-opacity="0.02" stroke="None">
<path d="
M 252.00 116.00 
L 269.00 116.00
C 269.00 116.00 268.78 115.38 269.00 115.00
C 263.33 115.00 257.67 115.00 252.00 115.00
C 252.00 115.00 252.00 115.50 252.00 116.00 Z"/>
</g>
</svg>